v -0.8166587353 1.683244944 0.8070303202
vn -0.003370612161 -0.03102056868 0.9995130897
v -0.8202139139 1.683244944 0.8034067154
vn -0.9995293617 -0.03036954068 0.004328368232
v -0.8166587353 1.679259539 0.8034067154
vn -0.007393307518 -0.9999719262 0.001238726429
v -0.281173259 1.679259539 0.8034067154
vn 0.007376737427 -0.9999606609 0.004921953194
v -0.2776181996 1.683244944 0.8034067154
vn 0.9995361567 -0.030434791 0.001104489085
v -0.281173259 1.683244944 0.8070303202
vn 0.01312405709 -0.03082192503 0.9994387031
v -0.8202139139 1.683244944 -0.8034067154
vn -0.999536097 -0.03043574654 -0.001104523777
v -0.8166587353 1.683244944 -0.8070303202
vn -0.0131240515 -0.03082191944 -0.9994387031
v -0.8166587353 1.679259539 -0.8034067154
vn -0.00737673603 -0.9999606609 -0.004921952728
v -0.281173259 1.679259539 -0.8034067154
vn 0.007393308915 -0.9999719262 -0.001238726429
v -0.281173259 1.683244944 -0.8070303202
vn 0.003370612394 -0.03102056868 -0.9995130897
v -0.2776181996 1.683244944 -0.8034067154
vn 0.9995294213 -0.030368587 -0.004328232259
v -0.8166587353 1.796014667 0.8070303202
vn -0.01312406082 0.03082196601 0.9994387031
v -0.8166587353 1.799999952 0.8034067154
vn -0.0037087854 0.999990046 0.002474599518
v -0.8202139139 1.796014667 0.8034067154
vn -0.999536097 0.0304357931 0.001104523777
v -0.2776181996 1.796014667 0.8034067154
vn 0.9995294213 0.03036863357 0.004328235518
v -0.281173259 1.799999952 0.8034067154
vn 0.01467155665 0.9998893738 0.002458174713
v -0.281173259 1.796014667 0.8070303202
vn 0.003370612394 0.03102061711 0.9995130897
v -0.8202139139 1.796014667 -0.8034067154
vn -0.9995293617 0.03036958724 -0.004328371491
v -0.8166587353 1.799999952 -0.8034067154
vn -0.01467155106 0.9998893738 -0.002458174014
v -0.8166587353 1.796014667 -0.8070303202
vn -0.003370612161 0.03102061711 -0.9995130897
v -0.281173259 1.796014667 -0.8070303202
vn 0.0131240664 0.0308219716 -0.9994387031
v -0.281173259 1.799999952 -0.8034067154
vn 0.003708785865 0.999990046 -0.002474599518
v -0.2776181996 1.796014667 -0.8034067154
vn 0.9995361567 0.03043483756 -0.001104489085
v -0.2688601017 1.683244944 0.8070303202
vn -0.003370612161 -0.03102056868 0.9995130897
v -0.2724152207 1.683244944 0.8034067154
vn -0.9995293617 -0.03036877885 0.004328259267
v -0.2688601017 1.679259539 0.8034067154
vn -0.007393307984 -0.9999719262 0.001238726429
v 0.2666253746 1.679259539 0.8034067154
vn 0.007376736496 -0.9999606609 0.004921953194
v 0.2701804638 1.683244944 0.8034067154
vn 0.9995361567 -0.03043498099 0.001104495954
v 0.2666253746 1.683244944 0.8070303202
vn 0.0131240543 -0.03082192317 0.9994387031
v -0.2724152207 1.683244944 -0.8034067154
vn -0.9995361567 -0.03043498099 -0.001104495954
v -0.2688601017 1.683244944 -0.8070303202
vn -0.0131240543 -0.03082192317 -0.9994387031
v -0.2688601017 1.679259539 -0.8034067154
vn -0.007376736496 -0.9999606609 -0.004921953194
v 0.2666253746 1.679259539 -0.8034067154
vn 0.007393307984 -0.9999719262 -0.001238726429
v 0.2666253746 1.683244944 -0.8070303202
vn 0.003370612161 -0.03102056868 -0.9995130897
v 0.2701804638 1.683244944 -0.8034067154
vn 0.9995293617 -0.03036877885 -0.004328259267
v -0.2688601017 1.796014667 0.8070303202
vn -0.01312406454 0.03082196973 0.9994387031
v -0.2688601017 1.799999952 0.8034067154
vn -0.0037087854 0.999990046 0.002474599518
v -0.2724152207 1.796014667 0.8034067154
vn -0.9995361567 0.03043502755 0.001104495954
v 0.2701804638 1.796014667 0.8034067154
vn 0.9995293617 0.03036882542 0.004328262527
v 0.2666253746 1.799999952 0.8034067154
vn 0.01467155386 0.9998893738 0.00245817448
v 0.2666253746 1.796014667 0.8070303202
vn 0.003370612161 0.03102061711 0.9995130897
v -0.2724152207 1.796014667 -0.8034067154
vn -0.9995293617 0.03036882542 -0.004328262527
v -0.2688601017 1.799999952 -0.8034067154
vn -0.01467155386 0.9998893738 -0.00245817448
v -0.2688601017 1.796014667 -0.8070303202
vn -0.003370612161 0.03102061711 -0.9995130897
v 0.2666253746 1.796014667 -0.8070303202
vn 0.01312406454 0.03082196973 -0.9994387031
v 0.2666253746 1.799999952 -0.8034067154
vn 0.0037087854 0.999990046 -0.002474599518
v 0.2701804638 1.796014667 -0.8034067154
vn 0.9995361567 0.03043502755 -0.001104495954
v 0.281173259 1.683244944 0.8070303202
vn -0.003370612394 -0.03102056868 0.9995130897
v 0.2776181996 1.683244944 0.8034067154
vn -0.9995294213 -0.030368587 0.004328232259
v 0.281173259 1.679259539 0.8034067154
vn -0.007393308915 -0.9999719262 0.001238726429
v 0.8166587353 1.679259539 0.8034067154
vn 0.00737673603 -0.9999606609 0.004921952728
v 0.8202139139 1.683244944 0.8034067154
vn 0.999536097 -0.03043574654 0.001104523777
v 0.8166587353 1.683244944 0.8070303202
vn 0.0131240515 -0.03082191944 0.9994387031
v 0.2776181996 1.683244944 -0.8034067154
vn -0.9995361567 -0.030434791 -0.001104489085
v 0.281173259 1.683244944 -0.8070303202
vn -0.01312405709 -0.03082192503 -0.9994387031
v 0.281173259 1.679259539 -0.8034067154
vn -0.007376737427 -0.9999606609 -0.004921953194
v 0.8166587353 1.679259539 -0.8034067154
vn 0.007393307518 -0.9999719262 -0.001238726429
v 0.8166587353 1.683244944 -0.8070303202
vn 0.003370612161 -0.03102056868 -0.9995130897
v 0.8202139139 1.683244944 -0.8034067154
vn 0.9995293617 -0.03036954068 -0.004328368232
v 0.281173259 1.796014667 0.8070303202
vn -0.0131240664 0.0308219716 0.9994387031
v 0.281173259 1.799999952 0.8034067154
vn -0.003708785865 0.999990046 0.002474599518
v 0.2776181996 1.796014667 0.8034067154
vn -0.9995361567 0.03043483756 0.001104489085
v 0.8202139139 1.796014667 0.8034067154
vn 0.9995293617 0.03036958724 0.004328371491
v 0.8166587353 1.799999952 0.8034067154
vn 0.01467155106 0.9998893738 0.002458174014
v 0.8166587353 1.796014667 0.8070303202
vn 0.003370612161 0.03102061711 0.9995130897
v 0.2776181996 1.796014667 -0.8034067154
vn -0.9995294213 0.03036863357 -0.004328235518
v 0.281173259 1.799999952 -0.8034067154
vn -0.01467155665 0.9998893738 -0.002458174713
v 0.281173259 1.796014667 -0.8070303202
vn -0.003370612394 0.03102061711 -0.9995130897
v 0.8166587353 1.796014667 -0.8070303202
vn 0.01312406082 0.03082196601 -0.9994387031
v 0.8166587353 1.799999952 -0.8034067154
vn 0.0037087854 0.999990046 -0.002474599518
v 0.8202139139 1.796014667 -0.8034067154
vn 0.999536097 0.0304357931 -0.001104523777
v 0.5424538255 1.675152063 0.6159611344
vn 0 -6.123234263e-17 -1
v 0.5424538255 1.375269294 0.6159611344
vn 0 -0.2607723773 -0.9654003382
v -0.5277152061 1.375269294 0.6159611344
vn 0 -0.2607723773 -0.9654003382
v -0.5277152061 1.675152063 0.6159611344
vn 0 -6.123234263e-17 -1
v 0.5424538255 1.675152063 0.6969649196
vn 0 6.123234263e-17 1
v -0.5277152061 1.675152063 0.6969649196
vn 0 6.123234263e-17 1
v -0.5277152061 1.375269294 0.6969649196
vn 0 -0.1338439882 0.9910024405
v 0.5424538255 1.375269294 0.6969649196
vn 0 -0.4753102064 0.8798182607
v -0.6012762785 1.675152063 0.5493732691
vn 1 0 0
v -0.6012762785 1.375269294 0.5493732691
vn 0.9666900039 -0.2559501529 1.567242563e-17
v -0.6012762785 1.375269294 -0.5424293876
vn 0.9666900039 -0.2559501529 1.567242563e-17
v -0.6012762785 1.675152063 -0.5424293876
vn 1 0 0
v -0.6806761026 1.675152063 0.5493732691
vn -1 0 0
v -0.6806761026 1.675152063 -0.5424293876
vn -1 0 0
v -0.6806761026 1.375269294 -0.5424293876
vn -0.9913506508 -0.1312397718 8.036118381e-18
v -0.6806761026 1.375269294 0.5493732691
vn -0.8837413192 -0.4679757059 2.865524703e-17
v 0.6173792481 1.675152063 -0.5424538255
vn -1 0 0
v 0.6173792481 1.375269294 -0.5424538255
vn -0.9666899443 -0.2559502721 1.56724339e-17
v 0.6173792481 1.375269294 0.5493439436
vn -0.9666899443 -0.2559502721 1.56724339e-17
v 0.6173792481 1.675152063 0.5493439436
vn -1 0 0
v 0.6967791319 1.675152063 -0.5424538255
vn 1 0 0
v 0.6967791319 1.675152063 0.5493439436
vn 1 0 0
v 0.6967791319 1.375269294 0.5493439436
vn 0.9913506508 -0.1312398463 8.036122517e-18
v 0.6967791319 1.375269294 -0.5424538255
vn 0.8837412 -0.4679759145 2.865526026e-17
v -0.5279450417 1.675152063 -0.603569746
vn 0 6.123234263e-17 1
v -0.5279450417 1.375269294 -0.603569746
vn 0 -0.2607723773 0.9654003382
v 0.5422288775 1.375269294 -0.603569746
vn 0 -0.2607723773 0.9654003382
v 0.5422288775 1.675152063 -0.603569746
vn 0 6.123234263e-17 1
v -0.5279450417 1.675152063 -0.6845735908
vn 0 -6.123234263e-17 -1
v 0.5422288775 1.675152063 -0.6845735908
vn 0 -6.123234263e-17 -1
v 0.5422288775 1.375269294 -0.6845735908
vn 0 -0.1338439882 -0.9910024405
v -0.5279450417 1.375269294 -0.6845735908
vn 0 -0.4753102064 -0.8798182607
v -0.5216857791 1.733348489 0.5373584032
vn 0.8907951117 -2.782429447e-17 -0.4544051886
v -0.5216857791 1.733348489 0.701297462
vn 0.4400793612 5.498412468e-17 0.8979588747
v -0.5216857791 9.84532335e-17 0.701297462
vn 0.8907951117 2.782429447e-17 0.4544051886
v -0.5216857791 8.841486075e-17 0.5373584032
vn 0.4400793612 -5.498412468e-17 -0.8979588747
v -0.6889402866 1.733348489 0.5373584032
vn -0.4400793612 -5.498412468e-17 -0.8979588747
v -0.6889402866 8.841486075e-17 0.5373584032
vn -0.8907951117 -2.782429447e-17 -0.4544051886
v -0.6889402866 1.733348489 0.701297462
vn -0.8907951117 2.782429447e-17 0.4544051886
v -0.6889402866 9.84532335e-17 0.701297462
vn -0.4400793612 5.498412468e-17 0.8979588747
v -0.6889402866 1.733348489 -0.5299597383
vn -0.8907951117 2.782429447e-17 0.4544051886
v -0.6889402866 1.733348489 -0.693898797
vn -0.4400793612 -5.498412468e-17 -0.8979588747
v -0.6889402866 1.302210421e-17 -0.693898797
vn -0.8907951117 -2.782429447e-17 -0.4544051886
v -0.6889402866 2.306047695e-17 -0.5299597383
vn -0.4400793612 5.498412468e-17 0.8979588747
v -0.5216857791 1.733348489 -0.5299597383
vn 0.4400793612 5.498412468e-17 0.8979588747
v -0.5216857791 2.306047695e-17 -0.5299597383
vn 0.8907951117 2.782429447e-17 0.4544051886
v -0.5216857791 1.733348489 -0.693898797
vn 0.8907951117 -2.782429447e-17 -0.4544051886
v -0.5216857791 1.302210421e-17 -0.693898797
vn 0.4400793612 -5.498412468e-17 -0.8979588747
v 0.5390650034 1.733348489 0.5357006192
vn -0.4544053078 -5.454546419e-17 -0.8907950521
v 0.7030041218 1.733348489 0.5357006192
vn 0.8979589343 -2.694708267e-17 -0.440079242
v 0.7030041218 8.831335576e-17 0.5357006192
vn 0.4544053078 -5.454546419e-17 -0.8907950521
v 0.5390650034 8.831335576e-17 0.5357006192
vn -0.8979589343 -2.694708267e-17 -0.440079242
v 0.5390650034 1.733348489 0.7029553056
vn -0.8979589343 2.694708267e-17 0.440079242
v 0.5390650034 9.855475172e-17 0.7029553056
vn -0.4544053078 5.454546419e-17 0.8907950521
v 0.7030041218 1.733348489 0.7029553056
vn 0.4544053078 5.454546419e-17 0.8907950521
v 0.7030041218 9.855475172e-17 0.7029553056
vn 0.8979589343 2.694708267e-17 0.440079242
v 0.7046617866 1.733348489 -0.693898797
vn 0.8907951713 -2.782428124e-17 -0.4544050097
v 0.7046617866 1.733348489 -0.5299597383
vn 0.44007954 5.498411807e-17 0.8979588151
v 0.7046617866 2.306047695e-17 -0.5299597383
vn 0.8907951713 2.782428124e-17 0.4544050097
v 0.7046617866 1.302210421e-17 -0.693898797
vn 0.44007954 -5.498411807e-17 -0.8979588151
v 0.5374073386 1.733348489 -0.693898797
vn -0.44007954 -5.498411807e-17 -0.8979588151
v 0.5374073386 1.302210421e-17 -0.693898797
vn -0.8907951713 -2.782428124e-17 -0.4544050097
v 0.5374073386 1.733348489 -0.5299597383
vn -0.8907951713 2.782428124e-17 0.4544050097
v 0.5374073386 2.306047695e-17 -0.5299597383
vn -0.44007954 5.498411807e-17 0.8979588151
v -0.5277152061 0.6949111223 0.6159611344
vn 0 -0.4234189689 -0.9059339762
v -0.5277152061 0.8682243228 0.6159611344
vn 0 0.4234189689 -0.9059339762
v 0.5424538255 0.8682243228 0.6159611344
vn 0 0.4234189689 -0.9059339762
v 0.5424538255 0.6949111223 0.6159611344
vn 0 -0.4234189689 -0.9059339762
v -0.5277152061 0.6949111223 0.6969649196
vn 0 -0.2275607884 0.9737638831
v 0.5424538255 0.6949111223 0.6969649196
vn 0 -0.6828781366 0.7305323482
v 0.5424538255 0.8682243228 0.6969649196
vn 0 0.2275607884 0.9737638831
v -0.5277152061 0.8682243228 0.6969649196
vn 0 0.6828781366 0.7305323482
v 0.6967791319 0.8682243228 0.5493439436
vn 0.9091351032 0.4165013433 -2.55033514e-17
v 0.6967791319 0.6949111223 0.5493439436
vn 0.9091351032 -0.4165013433 2.55033514e-17
v 0.6967791319 0.6949111223 -0.5424538255
vn 0.9091351032 -0.4165013433 2.55033514e-17
v 0.6967791319 0.8682243228 -0.5424538255
vn 0.9091351032 0.4165013433 -2.55033514e-17
v 0.6173792481 0.8682243228 0.5493439436
vn -0.9747539759 0.2232816368 -1.367205724e-17
v 0.6173792481 0.8682243228 -0.5424538255
vn -0.7373040318 0.6755610704 -4.136618409e-17
v 0.6173792481 0.6949111223 -0.5424538255
vn -0.9747539759 -0.2232816368 1.367205724e-17
v 0.6173792481 0.6949111223 0.5493439436
vn -0.7373040318 -0.6755610704 4.136618409e-17
v 0.5422288775 0.6949111223 -0.603569746
vn 0 -0.4234189689 0.9059339762
v 0.5422288775 0.8682243228 -0.603569746
vn 0 0.4234189689 0.9059339762
v -0.5279450417 0.8682243228 -0.603569746
vn 0 0.4234189689 0.9059339762
v -0.5279450417 0.6949111223 -0.603569746
vn 0 -0.4234189689 0.9059339762
v 0.5422288775 0.6949111223 -0.6845735908
vn 0 -0.2275607884 -0.9737638831
v -0.5279450417 0.6949111223 -0.6845735908
vn 0 -0.6828781366 -0.7305323482
v -0.5279450417 0.8682243228 -0.6845735908
vn 0 0.2275607884 -0.9737638831
v 0.5422288775 0.8682243228 -0.6845735908
vn 0 0.6828781366 -0.7305323482
v -0.6806761026 0.6949111223 0.5493732691
vn -0.9091351628 -0.4165011644 2.550334148e-17
v -0.6806761026 0.8682243228 0.5493732691
vn -0.9091351628 0.4165011644 -2.550334148e-17
v -0.6806761026 0.8682243228 -0.5424293876
vn -0.9091351628 0.4165011644 -2.550334148e-17
v -0.6806761026 0.6949111223 -0.5424293876
vn -0.9091351628 -0.4165011644 2.550334148e-17
v -0.6012762785 0.6949111223 0.5493732691
vn 0.9747539759 -0.2232815325 1.367205062e-17
v -0.6012762785 0.6949111223 -0.5424293876
vn 0.7373042107 -0.675560832 4.136617085e-17
v -0.6012762785 0.8682243228 -0.5424293876
vn 0.9747539759 0.2232815325 -1.367205062e-17
v -0.6012762785 0.8682243228 0.5493732691
vn 0.7373042107 0.675560832 -4.136617085e-17
f 1//1 2//2 3//3 
f 4//4 5//5 6//6 
f 7//7 8//8 9//9 
f 10//10 11//11 12//12 
f 13//13 14//14 15//15 
f 16//16 17//17 18//18 
f 19//19 20//20 21//21 
f 22//22 23//23 24//24 
f 25//25 26//26 27//27 
f 28//28 29//29 30//30 
f 31//31 32//32 33//33 
f 34//34 35//35 36//36 
f 37//37 38//38 39//39 
f 40//40 41//41 42//42 
f 43//43 44//44 45//45 
f 46//46 47//47 48//48 
f 49//49 50//50 51//51 
f 52//52 53//53 54//54 
f 55//55 56//56 57//57 
f 58//58 59//59 60//60 
f 61//61 62//62 63//63 
f 64//64 65//65 66//66 
f 67//67 68//68 69//69 
f 70//70 71//71 72//72 
f 3//3 9//9 10//10 
f 3//3 10//10 4//4 
f 14//14 17//17 23//23 
f 14//14 23//23 20//20 
f 1//1 6//6 18//18 
f 1//1 18//18 13//13 
f 5//5 12//12 24//24 
f 5//5 24//24 16//16 
f 11//11 8//8 21//21 
f 11//11 21//21 22//22 
f 7//7 2//2 15//15 
f 7//7 15//15 19//19 
f 3//3 2//2 7//7 
f 3//3 7//7 9//9 
f 9//9 8//8 11//11 
f 9//9 11//11 10//10 
f 10//10 12//12 5//5 
f 10//10 5//5 4//4 
f 4//4 6//6 1//1 
f 4//4 1//1 3//3 
f 14//14 13//13 18//18 
f 14//14 18//18 17//17 
f 17//17 16//16 24//24 
f 17//17 24//24 23//23 
f 23//23 22//22 21//21 
f 23//23 21//21 20//20 
f 20//20 19//19 15//15 
f 20//20 15//15 14//14 
f 6//6 5//5 16//16 
f 6//6 16//16 18//18 
f 13//13 15//15 2//2 
f 13//13 2//2 1//1 
f 12//12 11//11 22//22 
f 12//12 22//22 24//24 
f 8//8 7//7 19//19 
f 8//8 19//19 21//21 
f 27//27 33//33 34//34 
f 27//27 34//34 28//28 
f 38//38 41//41 47//47 
f 38//38 47//47 44//44 
f 25//25 30//30 42//42 
f 25//25 42//42 37//37 
f 29//29 36//36 48//48 
f 29//29 48//48 40//40 
f 35//35 32//32 45//45 
f 35//35 45//45 46//46 
f 31//31 26//26 39//39 
f 31//31 39//39 43//43 
f 27//27 26//26 31//31 
f 27//27 31//31 33//33 
f 33//33 32//32 35//35 
f 33//33 35//35 34//34 
f 34//34 36//36 29//29 
f 34//34 29//29 28//28 
f 28//28 30//30 25//25 
f 28//28 25//25 27//27 
f 38//38 37//37 42//42 
f 38//38 42//42 41//41 
f 41//41 40//40 48//48 
f 41//41 48//48 47//47 
f 47//47 46//46 45//45 
f 47//47 45//45 44//44 
f 44//44 43//43 39//39 
f 44//44 39//39 38//38 
f 30//30 29//29 40//40 
f 30//30 40//40 42//42 
f 37//37 39//39 26//26 
f 37//37 26//26 25//25 
f 36//36 35//35 46//46 
f 36//36 46//46 48//48 
f 32//32 31//31 43//43 
f 32//32 43//43 45//45 
f 51//51 57//57 58//58 
f 51//51 58//58 52//52 
f 62//62 65//65 71//71 
f 62//62 71//71 68//68 
f 49//49 54//54 66//66 
f 49//49 66//66 61//61 
f 53//53 60//60 72//72 
f 53//53 72//72 64//64 
f 59//59 56//56 69//69 
f 59//59 69//69 70//70 
f 55//55 50//50 63//63 
f 55//55 63//63 67//67 
f 51//51 50//50 55//55 
f 51//51 55//55 57//57 
f 57//57 56//56 59//59 
f 57//57 59//59 58//58 
f 58//58 60//60 53//53 
f 58//58 53//53 52//52 
f 52//52 54//54 49//49 
f 52//52 49//49 51//51 
f 62//62 61//61 66//66 
f 62//62 66//66 65//65 
f 65//65 64//64 72//72 
f 65//65 72//72 71//71 
f 71//71 70//70 69//69 
f 71//71 69//69 68//68 
f 68//68 67//67 63//63 
f 68//68 63//63 62//62 
f 54//54 53//53 64//64 
f 54//54 64//64 66//66 
f 61//61 63//63 50//50 
f 61//61 50//50 49//49 
f 60//60 59//59 70//70 
f 60//60 70//70 72//72 
f 56//56 55//55 67//67 
f 56//56 67//67 69//69 
f 73//73 74//74 75//75 
f 73//73 75//75 76//76 
f 77//77 78//78 79//79 
f 77//77 79//79 80//80 
f 80//80 79//79 75//75 
f 80//80 75//75 74//74 
f 81//81 82//82 83//83 
f 81//81 83//83 84//84 
f 85//85 86//86 87//87 
f 85//85 87//87 88//88 
f 88//88 87//87 83//83 
f 88//88 83//83 82//82 
f 89//89 90//90 91//91 
f 89//89 91//91 92//92 
f 93//93 94//94 95//95 
f 93//93 95//95 96//96 
f 96//96 95//95 91//91 
f 96//96 91//91 90//90 
f 97//97 98//98 99//99 
f 97//97 99//99 100//100 
f 101//101 102//102 103//103 
f 101//101 103//103 104//104 
f 104//104 103//103 99//99 
f 104//104 99//99 98//98 
f 105//105 106//106 107//107 
f 105//105 107//107 108//108 
f 109//109 105//105 108//108 
f 109//109 108//108 110//110 
f 111//111 109//109 110//110 
f 111//111 110//110 112//112 
f 106//106 111//111 112//112 
f 106//106 112//112 107//107 
f 113//113 114//114 115//115 
f 113//113 115//115 116//116 
f 117//117 113//113 116//116 
f 117//117 116//116 118//118 
f 119//119 117//117 118//118 
f 119//119 118//118 120//120 
f 114//114 119//119 120//120 
f 114//114 120//120 115//115 
f 121//121 122//122 123//123 
f 121//121 123//123 124//124 
f 125//125 121//121 124//124 
f 125//125 124//124 126//126 
f 127//127 125//125 126//126 
f 127//127 126//126 128//128 
f 122//122 127//127 128//128 
f 122//122 128//128 123//123 
f 129//129 130//130 131//131 
f 129//129 131//131 132//132 
f 133//133 129//129 132//132 
f 133//133 132//132 134//134 
f 135//135 133//133 134//134 
f 135//135 134//134 136//136 
f 130//130 135//135 136//136 
f 130//130 136//136 131//131 
f 137//137 138//138 139//139 
f 137//137 139//139 140//140 
f 141//141 142//142 143//143 
f 141//141 143//143 144//144 
f 137//137 140//140 142//142 
f 137//137 142//142 141//141 
f 139//139 138//138 144//144 
f 139//139 144//144 143//143 
f 145//145 146//146 147//147 
f 145//145 147//147 148//148 
f 149//149 150//150 151//151 
f 149//149 151//151 152//152 
f 145//145 148//148 150//150 
f 145//145 150//150 149//149 
f 147//147 146//146 152//152 
f 147//147 152//152 151//151 
f 153//153 154//154 155//155 
f 153//153 155//155 156//156 
f 157//157 158//158 159//159 
f 157//157 159//159 160//160 
f 153//153 156//156 158//158 
f 153//153 158//158 157//157 
f 155//155 154//154 160//160 
f 155//155 160//160 159//159 
f 161//161 162//162 163//163 
f 161//161 163//163 164//164 
f 165//165 166//166 167//167 
f 165//165 167//167 168//168 
f 161//161 164//164 166//166 
f 161//161 166//166 165//165 
f 163//163 162//162 168//168 
f 163//163 168//168 167//167 
