v -0.271016866 -2.890391926e-08 0.2166486979
vn 0.2322648764 -0.01355006918 -0.9725582004
v -0.1143569276 1.987109423 0.1980455369
vn -0.1796406209 -0.02406931296 -0.9834377766
v -0.08966566622 -2.890391926e-08 0.3484077156
vn 0.9953467846 -0.05440341681 -0.07952988148
v 0.05803446099 1.987109423 0.3232957721
vn 0.8789227605 0.01213021111 -0.4768098295
v -0.1589347273 -2.890391926e-08 0.5615998507
vn 0.3837715983 -0.008953992277 0.9233846664
v -0.007813782431 1.987109423 0.5259554982
vn 0.7273656726 0.05049327761 0.6843899488
v -0.3830973208 -2.890391926e-08 0.5615998507
vn -0.758261919 0.06000794098 0.6491824985
v -0.2209020704 1.987109423 0.5259554982
vn -0.4306239784 0.04104507342 0.9015976191
v -0.4523687065 -2.890391926e-08 0.3484077156
vn -0.8518663645 0.05718343332 -0.5206282139
v -0.2867506444 1.987109423 0.3232957721
vn -0.9921133518 -0.003838107688 -0.1252852529
v -0.1746498495 3.643025637 0.2552845478
vn 0.9854450822 0.1505353004 0.07897517085
v -0.2751213014 3.614022493 0.1376129389
vn 0.4068506956 0.01640230045 -0.9133474231
v -0.2455453575 3.604373932 0.3904214203
vn 0.2082523555 0.1232718974 0.9702757597
v -0.3898303509 3.551480532 0.3562690914
vn -0.8624442816 -0.02909905277 0.505314827
v -0.4081094265 3.557443619 0.2000243068
vn -0.7514839172 -0.09923219681 -0.652246058
v -0.06950061768 2.08538866 0.3483039439
vn 0.5627115369 -0.8153847456 -0.1360275149
v -0.1907664388 2.160885811 0.2770222425
vn -0.3003260493 -0.4569439888 -0.8372612596
v -0.01616524719 2.178410053 0.4665766358
vn 0.6605461836 -0.03825510293 0.7498101592
v -0.1044669673 2.311398029 0.4683907926
vn -0.1454432756 0.7960357666 0.5875145197
v -0.2123750299 2.300566912 0.3512398899
vn -0.7429713011 0.5402327776 -0.3951483071
v 0.4212468863 2.491112471 -0.05360895395
vn 0.4311364889 -0.8286471367 -0.3570227027
v 0.3073220849 2.562041759 -0.1205771491
vn -0.5439696312 -0.3200726807 -0.7756613493
v 0.4713563621 2.578505278 0.05750731379
vn 0.8231401443 -0.1859702915 0.536521554
v 0.3883990645 2.703444004 0.05921055749
vn 0.09103830159 0.7281303406 0.6793660522
v 0.2870191336 2.693269491 -0.05085013807
vn -0.7524287105 0.6460500956 -0.1283366978
v 0.7920238972 2.910619497 -0.6511270404
vn 0.1798373908 -0.8515734673 -0.4924237728
v 0.6870298982 2.971429825 -0.6934288144
vn -0.7663770318 -0.1528683305 -0.62393713
v 0.848821044 2.985647678 -0.5636288524
vn 0.8862591386 -0.3527810872 0.300150454
v 0.7789296508 3.092826128 -0.5518510938
vn 0.3956086934 0.6421487331 0.6566116214
v 0.678935945 3.084039927 -0.6320730448
vn -0.6308988333 0.7710891366 0.08595483005
v -0.5578204393 3.699441671 1.489661336
vn 0.006464392412 -0.269002229 0.9631178379
v -1.252063513 3.900119305 -0.2511481941
vn -0.6313097477 -0.3372771442 -0.6983495951
v -1.230180025 4.803976059 0.2712845206
vn -0.7041159272 0.6524403095 -0.2802541554
v -0.7842841744 4.849123955 1.176116228
vn -0.0977903381 0.7536025047 0.6500156522
v -1.595273733 3.848041773 0.5434350967
vn -0.9069625735 -0.3926842213 0.1523746401
v 0.3265333176 3.701595783 0.9346794486
vn 0.7742516994 -0.5033664703 0.3836097717
v 0.2785260677 4.708899021 0.732925117
vn 0.6979875565 0.5533826947 0.4545118511
v -0.2269637883 3.156826019 -0.01182965934
vn 0.3159830272 -0.7606489062 -0.5670696497
v 0.3610845804 4.057298183 -0.05578989163
vn 0.8533488512 0.04747786373 -0.5191739202
v -0.5081187487 4.181984425 -0.59609586
vn 0.007261590566 0.139504984 -0.9901947379
v -0.7584908009 3.00427413 0.5469846725
vn -0.2465502024 -0.9545680881 0.1673701555
v -0.4027419984 5 0.02256959863
vn 0.2339966893 0.8915220499 -0.387858212
v -1.381846786 4.121970654 1.08632803
vn -0.754909277 0.221415475 0.6173226237
v 0.6842730641 3.563288689 0.3596970141
vn 0.02632493339 0.2879499495 0.9572835565
v 0.8961107135 3.116921902 -1.489661455
vn -0.1708257049 -0.4213792682 -0.8906503916
v 0.02194072679 2.899185181 -0.6877143383
vn -0.8500345945 -0.4423414171 -0.2859636843
v 0.4086050987 4.318636894 -0.7712283134
vn -0.3797807992 0.9028723836 -0.2014647424
v 0.1446294338 3.99937892 -0.04419999942
vn -0.6357266307 0.5329954028 0.5583614707
v 0.3619291186 2.619563341 0.01615204103
vn -0.4606051445 -0.7918982506 0.400924027
v 0.9881213903 2.85212636 0.2776966989
vn 0.4821156859 -0.1802887619 0.8573566675
v 1.512452006 3.823539972 -0.3776418567
vn 0.7665494084 0.5646012425 0.3059861064
v 0.2246952951 3.612106562 -1.294086695
vn -0.5868647695 0.2266363353 -0.7773195505
v 1.226337671 3.78622818 -1.338388801
vn 0.5134192705 0.5144193769 -0.6868575811
v 1.435755014 2.680829763 -1.085766435
vn 0.4785996974 -0.735722363 -0.4792232513
v 1.595273733 2.712951422 -0.3313969374
vn 0.735358417 -0.5991271138 0.3166933358
v -0.403990984 0.1991871446 0.1646338999
vn 0.6235822439 0.2014351487 -0.7553601861
v -0.4034146369 0.3263587654 0.1849170029
vn 0.2307527214 0.7256386876 -0.6482296586
v -0.405588448 0.3750261664 0.3723227382
vn -0.7812253237 0.4915824533 0.3847514689
v -0.3116871119 0.3922016621 0.5622832775
vn 0.6406699419 0.3195635974 0.6981555223
v -0.1796617955 0.09800392389 0.3116396964
vn 0.6085739732 0.2600869536 -0.7496615648
v -0.5965457559 0.1948949695 0.03348494321
vn 0.1044123098 0.4722296298 -0.8752698302
v -0.5740423203 0.2941100895 0.1429409236
vn -0.8548868895 0.3618453443 0.3718015254
v -0.3988920748 0.3950731158 0.4749658108
vn -0.7747707963 0.4901700616 -0.3993287981
v -0.5633181334 0.3100994229 0.7027517557
vn -0.7989647985 0.2341525406 -0.5539204478
v -0.6299196482 0.1952366233 0.7835730314
vn -0.08739439398 -0.3088207841 0.9470965862
v -0.6569725871 0.1947805434 0.7422445416
vn -0.4158261418 -0.1930962652 -0.8887082934
v -0.7389249206 0.1922937185 0.7818322182
vn -0.5470730662 0.7539072633 0.363778621
v -0.1068230197 0.07031562179 0.3587899208
vn 0.5366476774 0.129538998 -0.8338038921
v -0.1636291742 0.3955168724 0.5146339536
vn -0.1223928705 0.408010602 0.904736042
v 0.1566645652 0.120203197 0.5361248255
vn 0.5534924865 0.09716454893 -0.8271669149
v -0.1451638639 0.3923787475 0.3841487765
vn 0.5663110018 0.3924449086 -0.724761188
v 0.2695519328 0.1490633637 0.6548697948
vn -0.1948933154 0.1117111593 0.9744420052
v 0.2811756134 0.2372701317 0.6318081617
vn 0.6282436252 0.705237329 -0.3285578191
v -0.3929646313 0.07031562179 0.3682185113
vn -0.7988044024 -0.04225043952 0.6001053452
v -0.3835610747 0.07031562179 0.4648984671
vn -0.80415833 -0.0133678643 -0.5942648053
v -0.5053579211 0.3247324824 0.7648357153
vn 0.06080136076 0.7360887527 0.674148798
v -0.5623503327 0.1914831549 0.7007372379
vn -0.6872200966 -0.3081732094 -0.6578432918
v -0.2843492925 0.07031562179 0.5712270737
vn 0.7228669524 0.08046156913 0.6862865686
v -0.5030179024 0.1683856994 0.7900531888
vn 0.6457079053 0.03618521616 0.7627266645
v -0.5504781008 0.1979704648 0.1669936925
vn -0.8653370142 -0.08868625015 0.4932815135
v -0.2942305803 0.3860238492 0.3185581863
vn 0.5451585054 0.4156442881 -0.7280398607
v -0.1781369597 0.07031562179 0.538860321
vn -0.2636855543 0.08335486054 0.9610004425
v -0.241498217 0.4747599959 0.2170834541
vn 0.1196327507 -0.02060022578 -0.9926044941
v -0.06389866024 0.4747599959 0.3461176455
vn 0.9784417748 -0.07493149489 -0.1924499124
v -0.1317364872 0.4747599959 0.5548996925
vn 0.4866670668 -0.01930822618 0.8733741045
v -0.3512622714 0.4747599959 0.5548996925
vn -0.6787199378 0.06956223398 0.731095314
v -0.4190997779 0.4747599959 0.3461176455
vn -0.9050983191 0.06876881421 -0.4196044207
f 57//57 56//56 61//61 
f 58//58 81//81 57//57 
f 80//80 62//62 61//61 
f 56//56 81//81 60//60 
f 78//78 59//59 79//79 
f 58//58 57//57 62//62 
f 76//76 64//64 67//67 
f 63//63 75//75 64//64 
f 59//59 63//63 76//76 
f 79//79 76//76 65//65 
f 64//64 66//66 67//67 
f 69//69 72//72 73//73 
f 70//70 71//71 73//73 
f 70//70 73//73 72//72 
f 64//64 76//76 63//63 
f 64//64 75//75 77//77 
f 64//64 77//77 66//66 
f 76//76 79//79 59//59 
f 67//67 65//65 76//76 
f 74//74 58//58 62//62 
f 62//62 80//80 74//74 
f 57//57 81//81 56//56 
f 61//61 62//62 57//57 
f 72//72 69//69 82//82 
f 73//73 71//71 69//69 
f 68//68 71//71 70//70 
f 39//39 37//37 36//36 
f 37//37 34//34 31//31 
f 36//36 31//31 41//41 
f 31//31 34//34 43//43 
f 41//41 31//31 35//35 
f 32//32 41//41 35//35 
f 33//33 32//32 35//35 
f 34//34 33//33 43//43 
f 43//43 33//33 35//35 
f 35//35 31//31 43//43 
f 34//34 42//42 33//33 
f 40//40 32//32 33//33 
f 38//38 41//41 32//32 
f 42//42 40//40 33//33 
f 40//40 38//38 32//32 
f 38//38 36//36 41//41 
f 36//36 37//37 31//31 
f 37//37 42//42 34//34 
f 37//37 39//39 42//42 
f 39//39 40//40 42//42 
f 39//39 38//38 40//40 
f 39//39 36//36 38//38 
f 44//44 49//49 50//50 
f 51//51 55//55 54//54 
f 45//45 53//53 54//54 
f 46//46 45//45 54//54 
f 53//53 51//51 54//54 
f 50//50 49//49 55//55 
f 55//55 49//49 54//54 
f 49//49 46//46 54//54 
f 52//52 45//45 46//46 
f 52//52 53//53 45//45 
f 52//52 47//47 53//53 
f 53//53 47//47 51//51 
f 51//51 50//50 55//55 
f 51//51 44//44 50//50 
f 48//48 51//51 47//47 
f 48//48 44//44 51//51 
f 46//46 47//47 52//52 
f 46//46 48//48 47//47 
f 48//48 49//49 44//44 
f 48//48 46//46 49//49 
f 83//83 2//2 4//4 
f 83//83 4//4 84//84 
f 84//84 4//4 6//6 
f 84//84 6//6 85//85 
f 85//85 6//6 8//8 
f 85//85 8//8 86//86 
f 6//6 4//4 11//11 
f 6//6 11//11 13//13 
f 86//86 8//8 10//10 
f 86//86 10//10 87//87 
f 87//87 10//10 2//2 
f 87//87 2//2 83//83 
f 2//2 10//10 15//15 
f 2//2 15//15 12//12 
f 4//4 2//2 12//12 
f 4//4 12//12 11//11 
f 8//8 6//6 13//13 
f 8//8 13//13 14//14 
f 10//10 8//8 14//14 
f 10//10 14//14 15//15 
f 25//25 30//30 27//27 
f 25//25 27//27 22//22 
f 18//18 23//23 24//24 
f 18//18 24//24 19//19 
f 17//17 22//22 21//21 
f 17//17 21//21 16//16 
f 19//19 24//24 25//25 
f 19//19 25//25 20//20 
f 16//16 21//21 23//23 
f 16//16 23//23 18//18 
f 20//20 25//25 22//22 
f 20//20 22//22 17//17 
f 23//23 28//28 29//29 
f 23//23 29//29 24//24 
f 22//22 27//27 26//26 
f 22//22 26//26 21//21 
f 24//24 29//29 30//30 
f 24//24 30//30 25//25 
f 21//21 26//26 28//28 
f 21//21 28//28 23//23 
f 65//65 66//66 77//77 
f 65//65 77//77 79//79 
f 9//9 87//87 83//83 
f 9//9 83//83 1//1 
f 7//7 86//86 87//87 
f 7//7 87//87 9//9 
f 5//5 85//85 86//86 
f 5//5 86//86 7//7 
f 3//3 84//84 85//85 
f 3//3 85//85 5//5 
f 1//1 83//83 84//84 
f 1//1 84//84 3//3 
