v -0.3351603746 0.004836079199 -0.746037662
vn 0.08071354777 0.1414432079 -0.9866504669
v -0.5151332617 0.001429668162 -0.6724500656
vn -0.507599473 0.1265361309 -0.8522507548
v -0.6357797384 4.023489453e-08 -0.5329278111
vn -0.80944103 0.09926294535 -0.5787504911
v -0.7116995454 0.002538589062 -0.3609070182
vn -0.9877698421 0.07168491185 -0.1384628713
v -0.6468847394 0.001429631026 -0.1807466149
vn -0.8388431072 0.02593405172 0.5437551737
v -0.5005185604 0.001254534349 -0.07397353649
vn -0.5584685802 -0.004456222523 0.8295137286
v -0.3351572752 0.001429617521 -0.0007700920105
vn -0.1542988271 -0.01173086558 0.9879545569
v -0.1514958441 0.001458230894 -0.0428918004
vn 0.5092622638 0.01793429814 0.860424459
v -0.02342955582 0.001429631026 -0.1807466149
vn 0.8034404516 0.03106687218 0.5945740938
v 0.02479503304 0.001429644646 -0.3607225418
vn 0.9921116233 0.05618114397 0.1120633855
v -0.000782066083 0.004049730487 -0.5540668964
vn 0.8934105635 0.1057715043 -0.4366119206
v -0.1551807523 0.001429668162 -0.6724500656
vn 0.5498343706 0.1250389963 -0.8258616328
v -0.3337543607 1.687301397 -0.5003455281
vn -0.05986347795 0.07066001743 -0.9957025051
v -0.4587565064 1.686911464 -0.4607790709
vn -0.5167505741 0.04743485153 -0.8548209071
v -0.55025208 1.686911464 -0.3692832589
vn -0.8494336009 0.0376467295 -0.5263509154
v -0.6058703065 1.687785387 -0.244063437
vn -0.9951236248 0.04256791249 0.08897721767
v -0.55025208 1.686911464 -0.1193132997
vn -0.822314024 0.0303712748 0.5682228804
v -0.4587565064 1.686911464 -0.02781778574
vn -0.5243263245 0.03064369783 0.8509658575
v -0.3337464929 1.687384367 0.01515224576
vn 0.09377106279 0.05150714144 0.9942605495
v -0.2244650275 1.685136318 -0.0540715456
vn 0.5557317734 0.06140807271 0.8290905952
v -0.1172906682 1.686911464 -0.1193132997
vn 0.8365767598 0.06694479287 0.5437441468
v -0.08380072564 1.686911464 -0.2442985773
vn 0.99647367 0.07792520523 -0.03111131117
v -0.1172903627 1.686911464 -0.3692832589
vn 0.8447301984 0.09051886201 -0.5274819732
v -0.2087858915 1.686911464 -0.4607790709
vn 0.5097059608 0.07556048781 -0.8570241928
v -0.3969724774 3.642830849 -0.5223330855
vn -0.0005509370239 -0.008323865011 -0.9999651909
v -0.490273267 3.641596556 -0.5238738656
vn -0.5525562763 -0.03701940551 -0.8326530457
v -0.5418233275 3.642531157 -0.4443597794
vn -0.950253427 -0.02197640389 -0.3107014894
v -0.5348150134 3.643202782 -0.3613290191
vn -0.9876255393 0.009383528493 0.1565495878
v -0.53693223 3.642830849 -0.2799159288
vn -0.8678790331 0.03705250099 0.4953918159
v -0.477778405 3.642830849 -0.2207624912
vn -0.4426885843 0.1004640758 0.8910295963
v -0.3969728947 3.642830849 -0.199110508
vn 0.2013580799 0.1479686797 0.9682769179
v -0.3192599714 3.641582489 -0.2259075642
vn 0.499484688 0.1586854756 0.8516653776
v -0.2570129633 3.642830849 -0.2799159288
vn 0.9196537733 0.1601234227 0.3586047888
v -0.2571327984 3.638895035 -0.3607946634
vn 0.9878371358 0.1315071583 -0.0829680711
v -0.2570129633 3.642830849 -0.4415276647
vn 0.8611552715 0.0926137194 -0.4998342693
v -0.3161666989 3.642830849 -0.5006811023
vn 0.4378872216 0.03143194318 -0.8984802961
v -0.6331464648 5 -0.5270409584
vn 0.004253732972 0.9999909401 -0.0001251933863
v 0.6372774839 1.91183424 -0.5696597695
vn 0.06942293793 -0.04190734029 -0.9967066646
v 0.5792387724 2.016617298 -0.5083486438
vn -0.2754860222 0.5610015392 -0.7806309462
v 0.5545003414 2.060757637 -0.3906878829
vn -0.398165375 0.9005695581 -0.1744670719
v 0.5729688406 2.025764942 -0.2635413408
vn -0.2598434985 0.7777550817 0.5723446012
v 0.6355490088 1.915312529 -0.1935952902
vn 0.1216473803 0.1660118848 0.9785918593
v 0.6866974831 1.809317946 -0.2685654163
vn 0.4695963264 -0.4912662804 0.7335780263
v 0.711435914 1.765177488 -0.3862264752
vn 0.6017657518 -0.7803300023 0.170185402
v 0.6902091503 1.80761075 -0.5051937699
vn 0.4564536214 -0.6489540935 -0.6086942554
v -0.2436321229 1.58163774 -0.4854896665
vn -0.1303593367 0.1215621084 -0.9839863181
v -0.2883763015 1.728954077 -0.4389959574
vn -0.274353832 0.684001565 -0.6759229302
v -0.3164644837 1.808065414 -0.2891868353
vn -0.27789101 0.9593574405 0.04909031838
v -0.2977311313 1.744407415 -0.1228016615
vn -0.09792422503 0.6534525156 0.7506068349
v -0.2480933517 1.587505102 -0.05205482244
vn 0.2010832429 -0.092616193 0.9751859903
v -0.1966277212 1.429269791 -0.1183894277
vn 0.3941707015 -0.638907969 0.6606255174
v -0.1629891694 1.339615345 -0.2819079161
vn 0.4207025468 -0.9023875594 -0.09330632538
v -0.1922154874 1.426051855 -0.4493322968
vn 0.1753700376 -0.5612797737 -0.808832705
v 1.152758121 2.487922907 -0.340526104
vn 0.8836895227 0.4680627584 0.003176063532
v -0.4391146302 2.198806047 -0.3771013021
vn -0.2253072709 -0.8198513985 -0.5263841748
v -0.3251292109 2.242946863 -0.4153555632
vn 0.398312062 -0.5802191496 -0.7104176879
v -0.2416736186 2.347223997 -0.4009768367
vn 0.8730535507 0.1591864228 -0.4609090686
v -0.2619237602 2.459869385 -0.3190267086
vn 0.6648517251 0.743879199 0.06794057041
v -0.3680272698 2.474894285 -0.2489355206
vn 0.04523170367 0.8559215665 0.5151236653
v -0.477471441 2.450246572 -0.2012640238
vn -0.3803488314 0.6877337098 0.618350327
v -0.5468369126 2.345389366 -0.2257156372
vn -0.9114126563 -0.2470618188 0.3290705383
v -0.5061967373 2.259236813 -0.2978616953
vn -0.7507793903 -0.6570013762 -0.06840705127
v -0.7864402533 2.677273273 -0.9777799249
vn -0.4717148542 -0.6976259947 -0.5392615795
v -0.7051631808 2.711817265 -1.000844836
vn 0.1595044285 -0.5735708475 -0.8034766912
v -0.6335512996 2.784949064 -1.007429361
vn 0.7366068959 -0.07945933193 -0.6716371775
v -0.6618983746 2.863064766 -0.9352445602
vn 0.8102414012 0.5831880569 -0.05831433088
v -0.7316141129 2.891550779 -0.8780410886
vn 0.2221994847 0.8147019148 0.5356194377
v -0.8007901907 2.842568398 -0.873273313
vn -0.2222717404 0.6899113059 0.6889249682
v -0.8952195048 2.783377171 -0.8547303081
vn -0.811016798 0.2095399499 0.5462094545
v -0.8530142307 2.708034992 -0.9208354354
vn -0.8235397339 -0.5485967398 -0.14430511
v -1.029641628 3.413542271 -1.260065794
vn -0.4398781061 0.4603224695 -0.771109879
v -0.1313976198 1.990591526 -0.242510438
vn 0.7228211761 0.3717340529 0.5825318098
v -0.1691595018 1.855612159 -0.1738390326
vn 0.6114119887 -0.09900511056 0.7850944996
v -0.2679350078 1.746585011 -0.1573255658
vn 0.1012718529 -0.743552804 0.6609638929
v -0.4089538455 1.728739977 -0.2267479897
vn -0.5443300605 -0.8323605657 0.1043106243
v -0.4934168756 1.811966181 -0.3314554691
vn -0.8287788033 -0.400080353 -0.3912306428
v -0.4718471766 1.947510242 -0.4101112485
vn -0.7131415606 0.1983455271 -0.6723750234
v -0.356880039 2.055972815 -0.4166400433
vn -0.117719911 0.8305048347 -0.5444297194
v -0.2158607394 2.07381773 -0.3472176194
vn 0.4315604866 0.9009474516 -0.04526818171
v -0.7323503494 2.627361536 0.5875487328
vn 0.9510824084 0.3058509529 0.04355999827
v -0.7711967826 2.545398712 0.6227715015
vn 0.8319208622 -0.2254502177 0.5070304871
v -0.8205735683 2.458203077 0.6544539332
vn 0.4042394757 -0.5295988917 0.745731473
v -0.9306833744 2.440836906 0.6112810969
vn -0.5659388304 -0.5892937183 0.5765814185
v -0.9702108502 2.509998083 0.5291086435
vn -0.9825025201 -0.1785005778 0.05316354334
v -0.9560387135 2.599055767 0.4774278402
vn -0.8528205156 0.3204669356 -0.4123082459
v -0.8767588139 2.658690214 0.4830016196
vn -0.3374138474 0.6885430813 -0.6419192553
v -0.7878459692 2.682044029 0.5187524557
vn 0.4464016855 0.7435991168 -0.4977810085
v -0.9113464952 3.289472818 1.260066152
vn -0.4276560843 0.523111701 0.7372003794
v -0.5411344767 2.218067169 0.1378746331
vn 0.8448520303 0.4037901461 0.3509680331
v -0.5898769498 2.107696533 0.1758792996
vn 0.7321737409 -0.1183019206 0.6707654595
v -0.6546233296 2.018625021 0.2058032155
vn 0.245201692 -0.6029577851 0.7591561079
v -0.7710948586 2.001118422 0.1509331167
vn -0.5548565984 -0.7655009627 0.325795114
v -0.816532135 2.080980778 0.06943121552
vn -0.8954554796 -0.3805161417 -0.2310128063
v -0.7949209213 2.175224066 0.01994609833
vn -0.7953209281 0.1543233544 -0.5862157941
v -0.7288609147 2.274531841 -0.008489191532
vn -0.3019042313 0.6858174801 -0.6621994972
v -0.6134189367 2.282286882 0.0528241694
vn 0.4531382918 0.8393242359 -0.3003340364
v -0.4046732485 3.306275129 -0.4155343771
vn -0.7701632977 0.0283974912 -0.637214303
v -0.4229510427 3.384537697 -0.3350180387
vn -0.7581105232 0.6422229409 0.1132170707
v -0.3152792752 3.384855986 -0.2626943588
vn 0.1825728565 0.6788065434 0.7112585902
v -0.2453692704 3.306275129 -0.3059095144
vn 0.924562335 0.05205072835 0.3774589002
v -0.2604682148 3.252176285 -0.3786543012
vn 0.8556215763 -0.4330673218 -0.2834862173
v -0.3296063244 3.237054825 -0.4544106126
vn 0.04712806642 -0.4738395512 -0.8793492317
v -0.08373594284 3.863164425 -0.7786145806
vn 0.4076211154 0.7032459974 -0.5824861526
v -0.3667174578 2.794049978 -0.1416310668
vn -0.5197983384 -0.1373597682 0.8431737423
v -0.2745062411 2.718173027 -0.1833054423
vn 0.1798238456 -0.8177410364 0.546775043
v -0.2053079754 2.738940716 -0.2771353722
vn 0.7742200494 -0.599421382 -0.2031682432
v -0.2239066809 2.835930824 -0.3379130363
vn 0.6862689853 0.2569995224 -0.6804308295
v -0.3049010038 2.914289951 -0.3113535047
vn 0.02631350793 0.9061385393 -0.4221617579
v -0.3760600686 2.896767139 -0.2168166637
vn -0.5857929587 0.7465228438 0.3155158162
v 0.3176121712 3.202859402 0.3468415141
vn 0.6545584202 0.4831569195 0.5814745426
v 0.1480689794 1.67267406 -0.290133059
vn -0.511726141 -0.7870696187 0.3444673717
v 0.2359681875 1.677664518 -0.3705206513
vn 0.2005368769 -0.8856220245 -0.4188777208
v 0.297118634 1.757775545 -0.3987038136
vn 0.7713339925 -0.1556858718 -0.617094636
v 0.2836923897 1.851819396 -0.3548052907
vn 0.6719568968 0.732517004 -0.1090539843
v 0.2089484036 1.85482645 -0.2900901437
vn -4.56171656e-05 0.8346198797 0.5508263111
v 0.1479655951 1.785640359 -0.2545410395
vn -0.5635641813 0.1881657243 0.804356277
v 0.7533537149 1.508705378 0.2344022691
vn 0.6525565982 -0.2310142964 0.7216663361
v 0.1047062278 1.807974219 -0.4661011696
vn -0.5473043919 -0.007572425995 -0.8368993402
v 0.09028542042 1.850337267 -0.3844156861
vn -0.9023066759 0.4016060233 -0.1567011178
v 0.1095533147 1.890061975 -0.2836304903
vn -0.4214222431 0.6439561844 0.6385325193
v 0.2111606449 1.833563685 -0.2877238393
vn 0.6193636656 0.2413192242 0.7470968366
v 0.252486378 1.777341604 -0.3657162189
vn 0.9727723002 -0.2303188741 0.02583075315
v 0.1992591321 1.764546871 -0.4549047351
vn 0.4585640728 -0.3955573142 -0.7957721949
v 0.432316035 2.500878572 -0.6866165996
vn 0.4216217995 0.8250246048 -0.3762571812
v -0.6820855737 2.166920424 0.1154321432
vn -0.395454824 -0.0538784489 -0.9169037938
v -0.7397682667 2.212839127 0.1356342435
vn -0.931564033 0.3531823158 -0.08631748706
v -0.6734933853 2.206666708 0.1853312552
vn -0.4453122914 0.3778854311 0.8117262721
v -0.6147781014 2.185930729 0.216730535
vn 0.4258701205 0.2313757837 0.8746998906
v -0.5838164091 2.143808603 0.1582969725
vn 0.9926698804 -0.1203454733 -0.01111027598
v -0.6225207448 2.133791924 0.08971109986
vn 0.356629312 -0.1828513891 -0.9161773324
v -0.5065469742 2.79552269 0.002786070108
vn 0.4114840925 0.8085781336 -0.4205737114
v -0.7769006491 2.138391256 0.2772901952
vn -0.2304410785 -0.9683077335 0.09631726146
v -0.7063934207 2.173716784 0.2572752535
vn 0.5772871375 -0.7929002047 -0.1950610578
v -0.6428923607 2.243910551 0.2449668944
vn 0.9830135107 0.08212512732 -0.1641337872
v -0.7160674334 2.309620857 0.2673365176
vn 0.3292143047 0.934507966 0.1353247017
v -0.802228868 2.293287992 0.2916121483
vn -0.5408734083 0.7355454564 0.4079568684
v -0.8326453567 2.207673073 0.296588093
vn -0.8902631998 -0.184090808 0.4165837169
v -0.5185269117 2.142740726 0.9391832352
vn 0.2756013274 -0.04729961976 0.9601076245
v -0.8821401 2.335720539 0.3134518862
vn -0.8715257049 -0.4901840687 0.0127480654
v -0.8520502448 2.360604525 0.37412256
vn -0.249484852 -0.03758398071 0.9676491022
v -0.810723424 2.380884886 0.3336191177
vn 0.3763410151 0.3335007131 0.8643753529
v -0.7627055645 2.416159391 0.3137880564
vn 0.6912940741 0.6725263596 0.2642362416
v -0.7915745974 2.39047122 0.2591232955
vn 0.3445935845 0.4016933739 -0.8484678268
v -0.8496549726 2.353081703 0.2486115694
vn -0.4354067743 -0.1590209156 -0.8860774636
v -1.152758121 2.816890001 0.3143146634
vn -0.5429205894 0.8382296562 -0.05107158422
v -0.7445807457 2.632348299 -0.6952795386
vn -0.8562793136 -0.4886901677 0.1672353297
v -0.7025351524 2.661664009 -0.6629768014
vn -0.4384273291 -0.2466454208 0.8642612696
v -0.6599394679 2.694504738 -0.6346037984
vn 0.1995275468 0.3070312738 0.9305485487
v -0.628590107 2.710822344 -0.6950518489
vn 0.7156414986 0.6983920336 -0.0102848215
v -0.6552358866 2.687902927 -0.7556140423
vn 0.3209730983 0.4006433785 -0.8581731319
v -0.7132315636 2.648665667 -0.7557272911
vn -0.4649299383 -0.1911327988 -0.864470005
v -1.015499115 3.107294559 -0.6945636868
vn -0.5626174212 0.8245494962 -0.05983061716
v -0.5297220945 2.611360312 -0.5635651946
vn -0.08369027078 0.8056078553 0.5865082145
v -0.4538265765 2.597986221 -0.5664479733
vn 0.761638701 0.4790503681 0.4363681674
v -0.446197629 2.530013561 -0.6200456619
vn 0.8397564888 -0.4136923254 -0.3516641557
v -0.5199292898 2.518713236 -0.6310424209
vn 0.1003144011 -0.697348237 -0.7096776962
v -0.5952959061 2.529501438 -0.640617609
vn -0.678394258 -0.3554828167 -0.6429721713
v -0.6029245257 2.597474098 -0.5870196223
vn -0.8302691579 0.5417360067 0.1310543418
v -0.4090693891 3.020786047 -1.108722448
vn 0.1066970974 0.6058574915 -0.7883859873
v -0.2915769815 3.355268478 -0.2533921599
vn 0.8877473474 0.2799663544 0.365408659
v -0.3437193334 3.421237469 -0.3160908818
vn 0.3831718564 0.8872303367 -0.2569077909
v -0.4327294528 3.391105175 -0.3401559591
vn -0.5494553447 0.6616277695 -0.5102425814
v -0.4726671576 3.315234661 -0.3146862984
vn -0.9801713824 -0.1176250502 -0.1594629586
v -0.429466784 3.257558823 -0.2617019415
vn -0.5994604826 -0.6997312307 0.3886171877
v -0.3349360824 3.255242825 -0.2102488279
vn 0.35384956 -0.5628839731 0.7469619513
v -0.6127764583 3.704148293 0.2596484125
vn -0.3814412653 0.4735381007 0.7938918471
v -0.5003957152 3.002757072 -0.2585086226
vn -0.3092418909 0.2803791165 0.9087117314
v -0.4431990087 3.066798449 -0.3084146976
vn 0.2550404966 0.8630532026 0.4359971881
v -0.4125605226 3.050938606 -0.4052630067
vn 0.4881807566 0.6894391775 -0.535119772
v -0.445492506 2.962352037 -0.445073843
vn 0.1240963787 -0.1213784888 -0.9848184586
v -0.5045477748 2.8951931 -0.3976589441
vn -0.4397755563 -0.7130047083 -0.5460968018
v -0.5441001058 2.907052517 -0.2934631705
vn -0.7162511945 -0.5416139364 0.4400438666
v -1.088049054 3.394186258 -0.5792656541
vn -0.8118590117 0.4719386995 -0.3437423408
v 0.05922086537 1.652505875 -0.4005616903
vn -0.561604619 -0.8184526563 -0.1213898957
v 0.07438025624 1.725018382 -0.4567167163
vn -0.592520833 -0.1613855064 -0.7892235518
v 0.1165407673 1.797939181 -0.4733344913
vn -0.04122617468 0.5305164456 -0.8466715217
v 0.1805661321 1.823038101 -0.4004690051
vn 0.6871170998 0.7187603116 -0.10608349
v 0.1832967401 1.756831169 -0.3194704652
vn 0.7447621226 0.06979867071 0.6636697054
v 0.1226242408 1.671565413 -0.3195166588
vn 0.1421009451 -0.7072809935 0.6925033927
v 0.6674047709 1.296550751 -0.8143225312
vn 0.7253797054 -0.5171247125 -0.4543195963
f 30//30 37//37 29//29 
f 25//25 37//37 36//36 
f 27//27 37//37 26//26 
f 34//34 37//37 33//33 
f 31//31 37//37 30//30 
f 28//28 37//37 27//27 
f 35//35 37//37 34//34 
f 32//32 37//37 31//31 
f 29//29 37//37 28//28 
f 36//36 37//37 35//35 
f 26//26 37//37 25//25 
f 33//33 37//37 32//32 
f 43//43 44//44 54//54 
f 41//41 42//42 54//54 
f 39//39 40//40 54//54 
f 44//44 45//45 54//54 
f 42//42 43//43 54//54 
f 40//40 41//41 54//54 
f 38//38 39//39 54//54 
f 45//45 38//38 54//54 
f 68//68 71//71 69//69 
f 66//66 71//71 67//67 
f 64//64 71//71 65//65 
f 70//70 71//71 63//63 
f 67//67 71//71 68//68 
f 65//65 71//71 66//66 
f 63//63 71//71 64//64 
f 69//69 71//71 70//70 
f 80//80 88//88 81//81 
f 82//82 88//88 83//83 
f 84//84 88//88 85//85 
f 87//87 88//88 80//80 
f 81//81 88//88 82//82 
f 85//85 88//88 86//86 
f 83//83 88//88 84//84 
f 86//86 88//88 87//87 
f 101//101 103//103 100//100 
f 99//99 103//103 98//98 
f 102//102 103//103 101//101 
f 100//100 103//103 99//99 
f 98//98 103//103 97//97 
f 97//97 103//103 102//102 
f 108//108 110//110 107//107 
f 106//106 110//110 105//105 
f 109//109 110//110 108//108 
f 107//107 110//110 106//106 
f 105//105 110//110 104//104 
f 104//104 110//110 109//109 
f 115//115 117//117 114//114 
f 113//113 117//117 112//112 
f 116//116 117//117 115//115 
f 114//114 117//117 113//113 
f 112//112 117//117 111//111 
f 111//111 117//117 116//116 
f 122//122 124//124 121//121 
f 120//120 124//124 119//119 
f 123//123 124//124 122//122 
f 121//121 124//124 120//120 
f 119//119 124//124 118//118 
f 118//118 124//124 123//123 
f 129//129 131//131 128//128 
f 127//127 131//131 126//126 
f 130//130 131//131 129//129 
f 128//128 131//131 127//127 
f 126//126 131//131 125//125 
f 125//125 131//131 130//130 
f 136//136 138//138 135//135 
f 134//134 138//138 133//133 
f 137//137 138//138 136//136 
f 135//135 138//138 134//134 
f 133//133 138//138 132//132 
f 132//132 138//138 137//137 
f 143//143 145//145 142//142 
f 141//141 145//145 140//140 
f 144//144 145//145 143//143 
f 142//142 145//145 141//141 
f 140//140 145//145 139//139 
f 139//139 145//145 144//144 
f 150//150 152//152 149//149 
f 148//148 152//152 147//147 
f 151//151 152//152 150//150 
f 149//149 152//152 148//148 
f 147//147 152//152 146//146 
f 146//146 152//152 151//151 
f 157//157 159//159 156//156 
f 155//155 159//159 154//154 
f 158//158 159//159 157//157 
f 156//156 159//159 155//155 
f 154//154 159//159 153//153 
f 153//153 159//159 158//158 
f 164//164 166//166 163//163 
f 162//162 166//166 161//161 
f 165//165 166//166 164//164 
f 163//163 166//166 162//162 
f 161//161 166//166 160//160 
f 160//160 166//166 165//165 
f 171//171 173//173 170//170 
f 169//169 173//173 168//168 
f 172//172 173//173 171//171 
f 170//170 173//173 169//169 
f 168//168 173//173 167//167 
f 167//167 173//173 172//172 
f 178//178 180//180 177//177 
f 176//176 180//180 175//175 
f 179//179 180//180 178//178 
f 177//177 180//180 176//176 
f 175//175 180//180 174//174 
f 174//174 180//180 179//179 
f 8//8 20//20 19//19 
f 8//8 19//19 7//7 
f 5//5 17//17 16//16 
f 5//5 16//16 4//4 
f 12//12 24//24 23//23 
f 12//12 23//23 11//11 
f 2//2 14//14 13//13 
f 2//2 13//13 1//1 
f 9//9 21//21 20//20 
f 9//9 20//20 8//8 
f 6//6 18//18 17//17 
f 6//6 17//17 5//5 
f 1//1 13//13 24//24 
f 1//1 24//24 12//12 
f 3//3 15//15 14//14 
f 3//3 14//14 2//2 
f 10//10 22//22 21//21 
f 10//10 21//21 9//9 
f 7//7 19//19 18//18 
f 7//7 18//18 6//6 
f 4//4 16//16 15//15 
f 4//4 15//15 3//3 
f 11//11 23//23 22//22 
f 11//11 22//22 10//10 
f 18//18 30//30 29//29 
f 18//18 29//29 17//17 
f 13//13 25//25 36//36 
f 13//13 36//36 24//24 
f 15//15 27//27 26//26 
f 15//15 26//26 14//14 
f 22//22 34//34 33//33 
f 22//22 33//33 21//21 
f 19//19 31//31 30//30 
f 19//19 30//30 18//18 
f 16//16 28//28 27//27 
f 16//16 27//27 15//15 
f 23//23 35//35 34//34 
f 23//23 34//34 22//22 
f 20//20 32//32 31//31 
f 20//20 31//31 19//19 
f 17//17 29//29 28//28 
f 17//17 28//28 16//16 
f 24//24 36//36 35//35 
f 24//24 35//35 23//23 
f 14//14 26//26 25//25 
f 14//14 25//25 13//13 
f 21//21 33//33 32//32 
f 21//21 32//32 20//20 
f 44//44 43//43 51//51 
f 44//44 51//51 52//52 
f 42//42 41//41 49//49 
f 42//42 49//49 50//50 
f 40//40 39//39 47//47 
f 40//40 47//47 48//48 
f 45//45 44//44 52//52 
f 45//45 52//52 53//53 
f 43//43 42//42 50//50 
f 43//43 50//50 51//51 
f 41//41 40//40 48//48 
f 41//41 48//48 49//49 
f 39//39 38//38 46//46 
f 39//39 46//46 47//47 
f 38//38 45//45 53//53 
f 38//38 53//53 46//46 
f 56//56 64//64 65//65 
f 56//56 65//65 57//57 
f 62//62 70//70 63//63 
f 62//62 63//63 55//55 
f 59//59 67//67 68//68 
f 59//59 68//68 60//60 
f 57//57 65//65 66//66 
f 57//57 66//66 58//58 
f 55//55 63//63 64//64 
f 55//55 64//64 56//56 
f 61//61 69//69 70//70 
f 61//61 70//70 62//62 
f 60//60 68//68 69//69 
f 60//60 69//69 61//61 
f 58//58 66//66 67//67 
f 58//58 67//67 59//59 
f 96//96 87//87 80//80 
f 96//96 80//80 89//89 
f 90//90 81//81 82//82 
f 90//90 82//82 91//91 
f 92//92 83//83 84//84 
f 92//92 84//84 93//93 
f 95//95 86//86 87//87 
f 95//95 87//87 96//96 
f 89//89 80//80 81//81 
f 89//89 81//81 90//90 
f 91//91 82//82 83//83 
f 91//91 83//83 92//92 
f 93//93 84//84 85//85 
f 93//93 85//85 94//94 
f 94//94 85//85 86//86 
f 94//94 86//86 95//95 
f 79//79 96//96 89//89 
f 79//79 89//89 72//72 
f 73//73 90//90 91//91 
f 73//73 91//91 74//74 
f 75//75 92//92 93//93 
f 75//75 93//93 76//76 
f 78//78 95//95 96//96 
f 78//78 96//96 79//79 
f 72//72 89//89 90//90 
f 72//72 90//90 73//73 
f 74//74 91//91 92//92 
f 74//74 92//92 75//75 
f 76//76 93//93 94//94 
f 76//76 94//94 77//77 
f 77//77 94//94 95//95 
f 77//77 95//95 78//78 
