v -0.2633522153 2.402627075e-08 -0.197519362
vn 0.2322558761 -0.01616976224 -0.9725202918
v -0.1809362918 1.110669017 -0.1963014603
vn -0.220508039 0.04295838997 -0.9744387269
v -0.1423740685 2.402627075e-08 -0.1096224263
vn 0.9947221875 -0.0648906678 -0.07947974652
v -0.07043319196 1.110669017 -0.1160164252
vn 0.8586325645 -0.04226342216 -0.5108462572
v -0.1885833144 2.402627075e-08 0.03259658441
vn 0.3837631941 -0.01068580337 0.9233697057
v -0.1126422137 1.110669017 0.01388852578
vn 0.7512242198 -0.04077151418 0.6587866545
v -0.3381211162 2.402627075e-08 0.03259658441
vn -0.7576838136 0.07156626135 0.6486859918
v -0.2492312491 1.110669017 0.01388852578
vn -0.3943273127 0.04537179694 0.9178493023
v -0.3843310177 2.402627075e-08 -0.1096224263
vn -0.8512766361 0.0682028085 -0.5202658176
v -0.2914391458 1.110669017 -0.1160164252
vn -0.9911339879 0.09675548226 -0.0910589844
v -0.02820811421 2.008858204 -0.0877333656
vn 0.9731830955 -0.03862931952 -0.2267651856
v -0.1107691973 2.008858204 -0.1477173865
vn 0.08512356877 0.001042426215 -0.9963698387
v -0.05974430591 2.008858204 0.009322609752
vn 0.5167726278 0.007136328612 0.8560929298
v -0.1617940962 2.008858204 0.009322609752
vn -0.6526809931 0.07492823899 0.7539186478
v -0.1933300644 2.008858204 -0.0877333656
vn -0.9189630151 0.07119182497 -0.3878642917
v -0.03056922555 2.673975945 -0.1228005216
vn 0.9978360534 7.526816626e-05 -0.06575110555
v -0.1075572073 2.673975945 -0.1787354946
vn 0.2455474436 -0.04634184018 -0.9682762623
v -0.0599762015 2.673975945 -0.03229552135
vn 0.3702597916 0.05814057216 0.9271069765
v -0.1551382095 2.673975945 -0.03229552135
vn -0.7677420974 0.04766600952 0.6389835477
v -0.1845451742 2.673975945 -0.1228005216
vn -0.8457947373 -0.01694265939 -0.5332393646
v -0.07759724557 1.499088049 -0.0648574084
vn 0.5609976053 -0.8153859377 0.1429246068
v -0.1188742146 1.541285992 -0.1317724735
vn 0.1261051297 -0.4569503367 -0.8805077672
v -0.08216226846 1.551081061 0.007516601589
vn 0.233197242 -0.0382584855 0.9716765881
v -0.1262621433 1.625411987 -0.01466946211
vn -0.4033234715 0.7960366607 0.4512824118
v -0.1489512473 1.619359016 -0.1007543728
vn -0.4719163775 0.5402358174 -0.6967353821
v 0.2699147165 1.725862026 -0.1351404488
vn 0.5480487943 -0.8286485076 -0.1139480323
v 0.2311348617 1.765506029 -0.198006466
vn -0.1180614233 -0.3200749457 -0.9400072098
v 0.2656259537 1.774708033 -0.06714649498
vn 0.4766615331 -0.1859688163 0.8591911197
v 0.2241948992 1.844542027 -0.08798845112
vn -0.2372491509 0.7281296849 0.6430707574
v 0.2028789073 1.838854074 -0.1688644886
vn -0.6050542593 0.646053791 -0.465321213
v 0.6092861891 1.960340023 -0.3334225118
vn 0.3892499506 -0.8515731692 -0.3511518538
v 0.5684719086 1.994328976 -0.3817663491
vn -0.3856107593 -0.1528571397 -0.9099115729
v 0.6144748926 2.00227499 -0.2753475308
vn 0.6429952979 -0.3527797163 0.6797819734
v 0.5768656731 2.062182188 -0.2877983749
vn 0.04261213169 0.6421405077 0.765401721
v 0.5484346747 2.05727005 -0.3535683453
vn -0.5978527069 0.7710865736 -0.2190837562
v -0.1000892296 2.03362298 -0.08960649371
vn 0.3243618906 0.8925519586 -0.3132736385
v -0.153194055 1.987861991 -0.1040303633
vn -0.6087197661 0.3120834529 -0.729427278
v -0.06174307689 2.006666183 -0.03552145138
vn 0.7853723168 0.2588302791 0.5623142123
v -0.09114915878 1.944244981 -0.01651950926
vn 0.1372065395 -0.71329844 0.6872988343
v -0.1476691216 1.932623029 -0.05885953084
vn -0.7243899107 -0.6803894043 -0.1110384688
v -0.250785172 2.147975922 0.08016866446
vn 0.1757819802 0.839913249 -0.5134651065
v -0.2972332239 2.107950926 0.06755258143
vn -0.7185719013 0.09731403738 -0.6886104941
v -0.217245087 2.124397993 0.1274736226
vn 0.7903415561 0.4440794885 0.422082454
v -0.242965132 2.069801092 0.1440937072
vn 0.2649123967 -0.5286591649 0.8064371943
v -0.2924001813 2.059636116 0.1070604548
vn -0.6560700536 -0.744060874 0.126275599
v -0.3953349888 2.308362007 0.2550345063
vn 0.0480251424 0.7463470101 -0.6638221145
v -0.4323129356 2.287146091 0.2443625778
vn -0.801200211 -0.03763696179 -0.5972115993
v -0.3852251768 2.297996998 0.2965284586
vn 0.8084408045 0.5412603021 0.2312157303
v -0.4159541726 2.270375967 0.3114996254
vn 0.3825901747 -0.3868785501 0.8390171528
v -0.4450550079 2.263669014 0.2792594731
vn -0.5915175676 -0.7356212735 0.3301034272
v 0.01441185456 3.24633503 0.5300775766
vn 0.2529295385 0.266942203 0.929929316
v -0.4645390213 3.384809017 -0.6225884557
vn -0.6569578052 0.4729114175 -0.5871637464
v 0.2312068939 3.384809017 -0.6254134774
vn 0.4067505002 0.5274168849 -0.7459124923
v 0.5674056411 3.246334076 -0.05933848396
vn 0.9760571122 0.1650364995 0.1416880488
v -0.2328941226 3.740946054 -0.2310534418
vn -0.282404542 0.9569376111 0.0672165826
v -0.1575889587 2.587713957 0.3866226077
vn -0.2244018614 -0.5870352983 0.7778388858
v 0.3536199033 2.50357604 -0.06186437607
vn 0.7222452164 -0.6240491271 0.2982020676
v -0.7968494892 2.828447104 -0.05933848396
vn -0.9355468154 -0.3530811965 -0.009266307577
v -0.2848011255 2.37204814 -0.2687654495
vn -0.2016512603 -0.9552412629 -0.216450721
v -0.4071670771 2.828448057 -0.7674074769
vn -0.3780992329 -0.2712084949 -0.8851479888
v -0.7049141526 3.273997068 0.2003244609
vn -0.7455182076 0.3942815661 0.5373496413
v 0.272707969 2.797945976 -0.6738192439
vn 0.5797389746 -0.4296593964 -0.6923117042
v 0.1100630686 3.672578096 0.01811952889
vn 0.4854793847 0.8526187539 0.1932641715
v 0.6621747613 1.95698607 0.1220126748
vn -0.0003281340178 -0.6018593907 0.7986020446
v 0.507160604 2.615534067 -0.706864357
vn 0.201086536 0.6275730133 -0.7521411777
v 1.06044066 2.342960119 -0.4347443879
vn 0.8932048082 0.1333764344 -0.4294134676
v 0.4735997617 1.792991996 -0.6122243404
vn -0.1617404073 -0.8211176991 -0.547362566
v 0.7580810189 1.721760035 -0.2478895932
vn 0.3712810874 -0.9163045883 0.1501206607
v 1.044786692 2.395134926 0.02606957778
vn 0.8550797701 0.3111768961 0.4147378802
v 0.707895875 2.372185946 0.2422775179
vn -0.1717243642 0.008727839217 0.985106349
v 0.1251457334 2.185384989 -0.1323844343
vn -0.8796884418 -0.2760494053 0.3872273266
v 0.7071136832 2.192101955 -0.8074355721
vn 0.2514871955 -0.120751068 -0.9602985978
v 0.1786178052 2.34798193 -0.6663116217
vn -0.8111873865 0.05140225589 -0.5825228095
v 0.4112547338 2.850759029 -0.3369625211
vn -0.1231202856 0.9892878532 -0.07842757553
v 0.3994199634 2.707046986 0.06956361979
vn -0.2717757821 0.668931365 0.6918588877
v -0.6297182441 2.605370045 -0.2009585798
vn 0.1187597588 0.5762602091 -0.8085915446
v -0.2748210728 2.197515965 0.05902368575
vn 0.7285404801 -0.4064730406 -0.5513696074
v -0.1918151528 2.698988914 0.3539565802
vn 0.7397320271 0.6656080484 -0.09880498052
v -0.8395552635 2.840553999 0.4233024418
vn -0.4258408546 0.8288064599 0.3629592061
v -0.166989252 2.145345926 0.6032477617
vn 0.7470954657 -0.5268309712 0.4053362906
v -0.4672000408 2.579195023 0.8074356318
vn 0.2271143049 0.4440600574 0.8667351007
v -0.7023960948 2.228387117 -0.1743524224
vn -0.2218836844 -0.579695344 -0.7840414047
v -0.7268353701 1.94373107 0.315720588
vn -0.1188511625 -0.9911628366 -0.05891187862
v -0.6881040931 2.178836107 0.7504946589
vn -0.5357028842 -0.3016990423 0.7886698246
v -1.060441017 2.294754982 0.2094585299
vn -0.9822952747 -0.1838773042 -0.0358492732
v -0.9511210918 2.729851961 0.1042585149
vn -0.7614804506 0.4791896641 -0.4364915192
v -0.3520581126 0.1113330424 -0.2322173864
vn 0.618281424 0.2383779585 -0.7489352822
v -0.3516750336 0.1824140102 -0.2186864167
vn 0.2086161971 0.782967627 -0.5860384107
v -0.3531241715 0.209616065 -0.09366948158
vn -0.7439998984 0.5587483048 0.3664211333
v -0.2904839218 0.2192160338 0.03305257112
vn 0.6272190213 0.3733976185 0.6834986806
v -0.2024101615 0.05477808043 -0.1341504306
vn 0.6000241041 0.3060559034 -0.7391216755
v -0.4805100262 0.1089340225 -0.3197064996
vn 0.099796772 0.5386965871 -0.8365683556
v -0.4654989541 0.164389044 -0.2466884106
vn -0.8320800662 0.4203371406 0.3618832529
v -0.3486572504 0.2208210379 -0.02519646473
vn -0.7380511165 0.5572897792 -0.3804058731
v -0.458345145 0.1733261049 0.1267576367
vn -0.7898255587 0.2762666941 -0.5475876927
v -0.5027750134 0.1091250032 0.1806736588
vn -0.08567690104 -0.3613435626 0.9284881949
v -0.5208221674 0.1088700294 0.1531035751
vn -0.4125841558 -0.2286541313 -0.8817548752
v -0.5754909515 0.1074801013 0.17951262
vn -0.4910400212 0.8076320887 0.3265120685
v -0.1538201869 0.03930208459 -0.1026965082
vn 0.5347474217 0.1540553421 -0.8308502436
v -0.1917141378 0.2210690975 0.001265643281
vn -0.1182872802 0.4706190228 0.8743717074
v 0.02195095457 0.06718601286 0.01560255606
vn 0.5523867011 0.1157305017 -0.8255152106
v -0.1793972999 0.2193150371 -0.08578041196
vn 0.548661828 0.4537834823 -0.7021757364
v 0.09725768119 0.08331700414 0.09481652081
vn -0.1943817139 0.1329747289 0.9718711376
v 0.105012849 0.1326190531 0.07943261415
vn 0.5708711743 0.7648329735 -0.2985575795
v -0.3447029591 0.03930208459 -0.09640742093
vn -0.7985018492 -0.05040927976 0.5998781323
v -0.3384299278 0.03930208459 -0.03191244602
vn -0.804125607 -0.01595073566 -0.5942453742
v -0.419681251 0.1815050393 0.1681735218
vn 0.05482193828 0.7921470404 0.6078631878
v -0.4577000737 0.1070270091 0.1254135221
vn -0.6737723947 -0.3606066406 -0.6449756622
v -0.2722461224 0.03930208459 0.03901856393
vn 0.7218762636 0.09590286762 0.6853446364
v -0.4181190729 0.09411703795 0.1849965304
vn 0.645527184 0.04318041727 0.7625156641
v -0.4497792423 0.1106530726 -0.2306436002
vn -0.8638982177 -0.1056839749 0.4924538732
v -0.2788380086 0.2157630026 -0.1295343339
vn 0.5262078047 0.4788325727 -0.7027266622
v -0.2013931572 0.03930208459 0.01742662489
vn -0.2632995546 0.09933779389 0.9595860243
v -0.243661046 0.2653610706 -0.1972284913
vn 0.113845706 -0.00735856453 -0.9934712052
v -0.1251851618 0.2653610706 -0.1111503765
vn 0.978014648 -0.06448995322 -0.1983139813
v -0.1704391688 0.2653610706 0.02812654711
vn 0.4917684197 -0.01896177977 0.8705195189
v -0.3168840408 0.2653610706 0.02812654711
vn -0.6745806932 0.06637262553 0.7352112532
v -0.3621371686 0.2653610706 -0.1111503765
vn -0.907230556 0.07349265367 -0.4141636491
f 88//88 87//87 92//92 
f 89//89 112//112 88//88 
f 111//111 93//93 92//92 
f 87//87 112//112 91//91 
f 109//109 90//90 110//110 
f 89//89 88//88 93//93 
f 107//107 95//95 98//98 
f 94//94 106//106 95//95 
f 90//90 94//94 107//107 
f 110//110 107//107 96//96 
f 95//95 97//97 98//98 
f 100//100 103//103 104//104 
f 101//101 102//102 104//104 
f 101//101 104//104 103//103 
f 95//95 107//107 94//94 
f 95//95 106//106 108//108 
f 95//95 108//108 97//97 
f 107//107 110//110 90//90 
f 98//98 96//96 107//107 
f 105//105 89//89 93//93 
f 93//93 111//111 105//105 
f 88//88 112//112 87//87 
f 92//92 93//93 88//88 
f 103//103 100//100 113//113 
f 104//104 102//102 100//100 
f 99//99 102//102 101//101 
f 59//59 57//57 56//56 
f 57//57 54//54 51//51 
f 56//56 51//51 61//61 
f 51//51 54//54 63//63 
f 61//61 51//51 55//55 
f 52//52 61//61 55//55 
f 53//53 52//52 55//55 
f 54//54 53//53 63//63 
f 63//63 53//53 55//55 
f 55//55 51//51 63//63 
f 54//54 62//62 53//53 
f 60//60 52//52 53//53 
f 58//58 61//61 52//52 
f 62//62 60//60 53//53 
f 60//60 58//58 52//52 
f 58//58 56//56 61//61 
f 56//56 57//57 51//51 
f 57//57 62//62 54//54 
f 57//57 59//59 62//62 
f 59//59 60//60 62//62 
f 59//59 58//58 60//60 
f 59//59 56//56 58//58 
f 64//64 69//69 70//70 
f 71//71 75//75 74//74 
f 65//65 73//73 74//74 
f 66//66 65//65 74//74 
f 73//73 71//71 74//74 
f 70//70 69//69 75//75 
f 75//75 69//69 74//74 
f 69//69 66//66 74//74 
f 72//72 65//65 66//66 
f 72//72 73//73 65//65 
f 72//72 67//67 73//73 
f 73//73 67//67 71//71 
f 71//71 70//70 75//75 
f 71//71 64//64 70//70 
f 68//68 71//71 67//67 
f 68//68 64//64 71//71 
f 66//66 67//67 72//72 
f 66//66 68//68 67//67 
f 68//68 69//69 64//64 
f 68//68 66//66 69//69 
f 77//77 78//78 80//80 
f 77//77 82//82 76//76 
f 76//76 86//86 79//79 
f 86//86 85//85 79//79 
f 85//85 84//84 79//79 
f 85//85 83//83 84//84 
f 84//84 81//81 79//79 
f 76//76 85//85 86//86 
f 76//76 82//82 85//85 
f 80//80 81//81 84//84 
f 78//78 79//79 81//81 
f 82//82 83//83 85//85 
f 83//83 80//80 84//84 
f 80//80 78//78 81//81 
f 78//78 76//76 79//79 
f 77//77 83//83 82//82 
f 77//77 80//80 83//83 
f 78//78 77//77 76//76 
f 114//114 2//2 4//4 
f 114//114 4//4 115//115 
f 115//115 4//4 6//6 
f 115//115 6//6 116//116 
f 116//116 6//6 8//8 
f 116//116 8//8 117//117 
f 6//6 4//4 11//11 
f 6//6 11//11 13//13 
f 117//117 8//8 10//10 
f 117//117 10//10 118//118 
f 118//118 10//10 2//2 
f 118//118 2//2 114//114 
f 15//15 14//14 19//19 
f 15//15 19//19 20//20 
f 2//2 10//10 15//15 
f 2//2 15//15 12//12 
f 4//4 2//2 12//12 
f 4//4 12//12 11//11 
f 8//8 6//6 13//13 
f 8//8 13//13 14//14 
f 10//10 8//8 14//14 
f 10//10 14//14 15//15 
f 13//13 11//11 16//16 
f 13//13 16//16 18//18 
f 12//12 15//15 20//20 
f 12//12 20//20 17//17 
f 14//14 13//13 18//18 
f 14//14 18//18 19//19 
f 11//11 12//12 17//17 
f 11//11 17//17 16//16 
f 30//30 35//35 32//32 
f 30//30 32//32 27//27 
f 23//23 28//28 29//29 
f 23//23 29//29 24//24 
f 22//22 27//27 26//26 
f 22//22 26//26 21//21 
f 24//24 29//29 30//30 
f 24//24 30//30 25//25 
f 21//21 26//26 28//28 
f 21//21 28//28 23//23 
f 25//25 30//30 27//27 
f 25//25 27//27 22//22 
f 28//28 33//33 34//34 
f 28//28 34//34 29//29 
f 27//27 32//32 31//31 
f 27//27 31//31 26//26 
f 29//29 34//34 35//35 
f 29//29 35//35 30//30 
f 26//26 31//31 33//33 
f 26//26 33//33 28//28 
f 44//44 49//49 50//50 
f 44//44 50//50 45//45 
f 40//40 45//45 42//42 
f 40//40 42//42 37//37 
f 38//38 43//43 44//44 
f 38//38 44//44 39//39 
f 37//37 42//42 41//41 
f 37//37 41//41 36//36 
f 39//39 44//44 45//45 
f 39//39 45//45 40//40 
f 36//36 41//41 43//43 
f 36//36 43//43 38//38 
f 41//41 46//46 48//48 
f 41//41 48//48 43//43 
f 45//45 50//50 47//47 
f 45//45 47//47 42//42 
f 43//43 48//48 49//49 
f 43//43 49//49 44//44 
f 42//42 47//47 46//46 
f 42//42 46//46 41//41 
f 96//96 97//97 108//108 
f 96//96 108//108 110//110 
f 9//9 118//118 114//114 
f 9//9 114//114 1//1 
f 7//7 117//117 118//118 
f 7//7 118//118 9//9 
f 5//5 116//116 117//117 
f 5//5 117//117 7//7 
f 3//3 115//115 116//116 
f 3//3 116//116 5//5 
f 1//1 114//114 115//115 
f 1//1 115//115 3//3 
