v -0.3205783367 0.007477946114 -0.09237798303
vn 0.2334352136 -0.03826615959 -0.9716191292
v -0.2373335212 1.253788948 -0.1214630455
vn -0.2268770188 0.002407236956 -0.9739204645
v -0.1586354226 0.007477946114 0.02527996339
vn 0.995036304 -0.06161430106 -0.07814344019
v -0.0842525661 1.253788948 -0.01024308801
vn 0.8555542827 -0.03722615167 -0.5163730383
v -0.2204925716 0.007477946114 0.2156570107
vn 0.3825126588 0.01019113231 0.9238940477
v -0.1427244842 1.253788948 0.1697150171
vn 0.7559906244 -0.006361986976 0.654551506
v -0.4206655025 0.007477946114 0.2156570107
vn -0.7582064867 0.07784127444 0.647351265
v -0.3319422901 1.253788948 0.1697150171
vn -0.3883784413 0.05231649801 0.9200136662
v -0.4825226665 0.007477946114 0.02527996339
vn -0.8515684605 0.04805766419 -0.5220360756
v -0.3904145062 1.253788948 -0.01024308801
vn -0.9947044849 0.05771165341 -0.08504336327
v -0.08220758289 3.327188969 -0.05399790034
vn 0.9986197352 0.004995798692 -0.05228408426
v -0.1944113672 3.327188969 -0.1355189979
vn 0.2587961555 -0.02379552089 -0.9656388164
v -0.1250652969 3.327188969 0.07790499926
vn 0.357773006 0.05518258736 0.9321767092
v -0.263756305 3.327188969 0.07790499926
vn -0.7758956552 0.05744300038 0.6282405853
v -0.3066145778 3.327188969 -0.05399790034
vn -0.8386116028 0.008670173585 -0.5446608067
v -0.1568143368 1.629341006 -0.05426704139
vn 0.4924419224 -0.02107245289 -0.8700901866
v -0.1690466553 1.541087985 0.07123401016
vn 0.5412288904 -0.8403574228 -0.02950697578
v -0.2606706321 1.613452911 0.1715190113
vn -0.1184702367 -0.4756886363 0.8715991974
v -0.3050655723 1.746428847 0.1079979762
vn -0.5749772191 0.5689803958 0.5879306793
v -0.2408784777 1.756248951 -0.03154599294
vn -0.1974122971 0.8499450088 -0.4884893298
v 0.456045568 1.932613015 0.3863080442
vn 0.4936380982 -0.8312549591 0.2556103766
v 0.4655335248 2.001069784 0.2889581323
vn 0.5024704933 -0.309636116 -0.8072476983
v 0.3849734068 1.988745928 0.46409899
vn -0.1555207223 -0.1820631325 0.9709100723
v 0.3505363166 2.091893911 0.4148249924
vn -0.5559214354 0.7436442971 0.3714087903
v 0.4003253281 2.099510908 0.3065829575
vn -0.1467625946 0.663215518 -0.7338977456
v 0.9903684855 2.426537991 0.4719018638
vn 0.5484515429 -0.678096354 0.4892711639
v 0.9977853894 2.480054855 0.3957971334
vn 0.5541830063 -0.4612572193 -0.6929090619
v 0.9348065853 2.470421076 0.5327160954
vn -0.15564394 0.03704736382 0.9871182442
v 0.9078855515 2.551059008 0.4941960275
vn -0.6414060593 0.7550282478 0.1361270696
v 0.9468085766 2.557013035 0.4095759392
vn -0.1923169643 0.4284689426 -0.8828524947
v -0.1591933221 2.419266939 -0.05333001539
vn 0.4641501606 -0.1252373159 -0.8768581748
v -0.1604483873 2.489918947 0.02197403461
vn 0.6062002778 0.7821865082 -0.1438941061
v -0.229355365 2.459872007 0.09277593344
vn -0.117926836 0.6286088228 0.7687289715
v -0.2706873119 2.370651007 0.06122991815
vn -0.7075099349 -0.3737277091 0.5997976661
v -0.2273246646 2.345556021 -0.02906794474
vn -0.3477692902 -0.8396298289 -0.417226851
v -0.7582802773 2.880461931 -0.3736519814
vn 0.3950310051 0.8781231642 0.2699078321
v -0.75736624 2.829016924 -0.4284850955
vn 0.641266942 0.2832307816 -0.713131845
v -0.8084565401 2.858582973 -0.3220970929
vn -0.4248872399 0.2789753973 0.8611872792
v -0.8385526538 2.79361701 -0.3450669646
vn -0.6853991747 -0.6862171888 0.2435856462
v -0.8069773316 2.775342941 -0.4108190536
vn -0.02648258023 -0.6835849285 -0.7293903232
v -0.07576132566 2.389533997 -0.02047205158
vn 0.9679613709 -0.009973322973 -0.2509009242
v -0.1258605421 2.38953495 0.1337170005
vn 0.5375004411 0.03134991229 0.8426805139
v -0.3380834162 2.389533997 -0.02047205158
vn -0.9301133156 0.03297506273 -0.3657894135
v -0.2069225013 2.38953495 -0.1157660782
vn 0.06049525365 -0.008967462927 -0.9981281757
v -0.2879844606 2.38953495 0.1337170005
vn -0.6345895529 0.05782323703 0.7706831694
v -0.4098905623 3.310046911 0.8009851575
vn -0.4478372931 -0.7651536465 0.4625814855
v -0.8562445641 3.545292854 0.04438601434
vn -0.8540468216 -0.4802880883 -0.1998183131
v -0.002786531579 3.569211006 -0.7784980536
vn 0.1075513661 -0.4293457866 -0.896713376
v 0.9428183436 4.229551792 0.2888559699
vn 0.9034116268 0.4257487953 0.05084634572
v 0.3840044439 4.701160908 0.0102449609
vn 0.3442184627 0.938395083 -0.03046836704
v 0.4445885718 3.101603031 0.5698509216
vn 0.2743549049 -0.9387920499 0.2083239108
v 0.7960914373 3.26650691 -0.2108929604
vn 0.6866586804 -0.6402659416 -0.3443244696
v -0.2469974458 3.139333963 -0.2318909913
vn -0.2647164762 -0.9217600822 -0.2833434641
v 0.3854024112 3.399843931 1.007572889
vn 0.2633881271 -0.3446500301 0.9010233283
v -0.9402916431 3.852011919 0.4720621407
vn -0.900975287 0.0524899438 0.430683583
v -0.3114667237 4.010612965 1.14885211
vn -0.3531448245 0.06957606226 0.9329779744
v -0.5900463462 3.913940907 -0.6458820701
vn -0.6271215677 -0.004359979182 -0.7789092064
v -0.8010447025 4.429730892 -0.06785994023
vn -0.8864749074 0.4297372997 -0.1717209667
v 0.219679445 4.287406921 -0.7701158524
vn 0.09692045301 0.5237109661 -0.8463647366
v 0.9559126496 3.830467939 0.6418540478
vn 0.8719289303 -0.1991759241 0.4472905695
v 0.8114195466 4.03637886 -0.5040199161
vn 0.7482556105 0.1836602688 -0.6374813318
v 0.3641926646 4.292611122 0.9875901341
vn 0.3649320602 0.5944690108 0.7165411115
v -0.4397616088 4.566824913 0.6628298759
vn -0.3409884572 0.8352438807 0.4313867092
v -0.358014524 4.673241138 -0.2366080582
vn -0.2591540813 0.8776804805 -0.4031328559
v -0.4803045094 2.523721933 -0.2565429807
vn 0.3699427247 -0.8291128874 0.4191828072
v -0.6326442957 3.551568985 0.07706296444
vn 0.2376477271 0.5728337765 0.7844647765
v -1.08240962 3.120471001 0.2363370061
vn -0.0008921230328 -0.1479329318 0.9889969826
v -0.5980783105 3.048478842 -1.321166754
vn 0.000891484844 0.1479333788 -0.988996923
v -1.200183392 3.645226955 -0.8282868266
vn -0.3699423373 0.8291130066 -0.4191828966
v -0.03230648115 3.073355913 -0.4202690125
vn 0.9390465021 -0.00936058443 0.343662709
v -0.1266846359 2.824126005 -0.9501388073
vn 0.7019788027 -0.5434375405 -0.4603275359
v -0.2668585181 3.572350025 -0.324903965
vn 0.411403656 0.9066745043 0.09321168065
v -0.3799124658 3.549862862 -1.021810889
vn 0.5380648375 0.6723590493 -0.5083497763
v -1.300575376 2.619086981 -0.06301901489
vn -0.5380654931 -0.6723587513 0.5083494782
v -1.553803563 3.344824076 -0.1346919537
vn -0.7019789219 0.5434376597 0.4603271484
v -1.413628697 2.596600056 -0.7599259615
vn -0.411404103 -0.9066742659 -0.09321177751
v -1.648181558 3.095593929 -0.6645620465
vn -0.9390464425 0.009359969757 -0.3436629474
v -1.047843695 2.617380857 -1.161892891
vn -0.2376473248 -0.5728338957 -0.7844648361
v 0.8640664816 2.206361055 1.190610886
vn -0.1790744066 -0.7272580266 0.6625919342
v 0.7184416056 3.287843943 1.178120017
vn -0.2630437315 0.7248665094 0.6366919279
v 0.2124256194 2.920737028 1.027514935
vn -0.7045579553 0.07788257301 0.7053597569
v 1.6063205 2.482923985 0.2988511026
vn 0.7045574188 -0.07788266242 -0.7053602934
v 0.954680562 3.197299957 0.1357561052
vn 0.179074496 0.727258265 -0.6625916958
v 1.393802881 2.687963009 1.321166992
vn 0.4257200658 0.03260590509 0.9042672515
v 1.643606544 2.329937935 0.9196679592
vn 0.7096972466 -0.6589236856 0.2492977381
v 1.255352259 3.204105854 1.155241013
vn 0.3941732645 0.8883075714 0.2356631756
v 1.6481812 3.030103922 0.5945490003
vn 0.8517359495 0.5203909278 -0.06114889681
v 0.1705646217 2.373556852 0.7318170071
vn -0.8517362475 -0.5203903913 0.0611491017
v 0.1751404703 3.073722839 0.4066980183
vn -0.7096971273 0.6589234471 -0.2492987812
v 0.5633935928 2.199553967 0.1711260229
vn -0.3941733837 -0.8883075118 -0.2356631458
v 0.424944669 2.715698004 0.005200041924
vn -0.4257199764 -0.03260538355 -0.9042673111
v 1.10030365 2.11581707 0.1482460946
vn 0.2630436122 -0.7248665094 -0.6366919279
v -0.4218155146 0.09375491738 -0.147919029
vn 0.6182844639 0.2383692712 -0.7489355206
v -0.4213156104 0.1862748563 -0.1303080469
vn 0.2086154073 0.7829684019 -0.5860376358
v -0.4232025445 0.2216799408 0.03241511807
vn -0.7439984083 0.5587509871 0.3664200902
v -0.3416695297 0.2341759503 0.1973569989
vn 0.6272184849 0.3733949363 0.6835006475
v -0.2270324081 0.02014292404 -0.02027492411
vn 0.6000220776 0.3060554564 -0.7391235232
v -0.5890084505 0.09063196927 -0.261795938
vn 0.09979376942 0.5386922956 -0.836571455
v -0.5694696307 0.1628119498 -0.166754961
vn -0.8320785761 0.4203419685 0.3618809879
v -0.4173876047 0.2362639457 0.1215400174
vn -0.7380471826 0.5572958589 -0.3804045916
v -0.5601584911 0.1744449139 0.3193230331
vn -0.7898256183 0.2762702107 -0.547585845
v -0.6179887056 0.0908799544 0.389501065
vn -0.08568222821 -0.3613379896 0.9284898639
v -0.641477704 0.09054888785 0.3536149859
vn -0.4125767648 -0.2286650985 -0.8817554712
v -0.7126355767 0.08873886615 0.3879890442
vn -0.4910377562 0.8076304793 0.3265194893
v -0.1637873799 -4.570867418e-08 0.02066502906
vn 0.5347495675 0.1540562361 -0.8308486938
v -0.2131115198 0.2365868837 0.155983001
vn -0.1182828397 0.4706224799 0.8743704557
v 0.06499651819 0.03629190475 0.1746440679
vn 0.552387774 0.1157320216 -0.8255143166
v -0.1970786899 0.2343038619 0.04268303141
vn 0.5486634374 0.4537865818 -0.7021724582
v 0.1630165726 0.05728895962 0.2777481377
vn -0.1943792403 0.1329757124 0.9718714952
v 0.1731095016 0.121459946 0.2577250898
vn 0.5708703995 0.7648333311 -0.2985582352
v -0.4122415185 -4.570867418e-08 0.02885195427
vn -0.7985020876 -0.05040507391 0.5998781323
v -0.404076457 -4.570867418e-08 0.1127979904
vn -0.8041251898 -0.0159517657 -0.5942459106
v -0.509832561 0.1850899905 0.3732308745
vn 0.05481717363 0.7921485305 0.6078616381
v -0.5593187213 0.0881498605 0.3175750971
vn -0.6737713814 -0.3606128693 -0.644973278
v -0.3179314733 -4.570867418e-08 0.2051220685
vn 0.721875608 0.09590035677 0.6853457093
v -0.5078007579 0.07134588808 0.3951279819
vn 0.6455279589 0.04317754135 0.7625151873
v -0.5490094423 0.09286889434 -0.1458709687
vn -0.8638984561 -0.1056727096 0.4924558401
v -0.3265115321 0.2296809405 -0.01426691841
vn 0.526211381 0.478828907 -0.7027264833
v -0.2257086933 -4.570867418e-08 0.1770190001
vn -0.2632952332 0.09934042394 0.9595869184
v -0.3024924099 0.2782499194 -0.0986970216
vn 0.1283142865 -0.03170218691 -0.9912267327
v -0.1424745321 0.2782499194 0.01756295189
vn 0.9808567762 -0.06378422678 -0.1839880347
v -0.2035963982 0.2782499194 0.2056749165
vn 0.4790593386 0.002463818295 0.8777790666
v -0.4013895094 0.2782499194 0.2056749165
vn -0.684823215 0.07546908408 0.7247906923
v -0.462510556 0.2782499194 0.01756295189
vn -0.9021735191 0.05447780341 -0.4279194474
f 94//94 93//93 98//98 
f 95//95 118//118 94//94 
f 117//117 99//99 98//98 
f 93//93 118//118 97//97 
f 115//115 96//96 116//116 
f 95//95 94//94 99//99 
f 113//113 101//101 104//104 
f 100//100 112//112 101//101 
f 96//96 100//100 113//113 
f 116//116 113//113 102//102 
f 101//101 103//103 104//104 
f 106//106 109//109 110//110 
f 107//107 108//108 110//110 
f 107//107 110//110 109//109 
f 101//101 113//113 100//100 
f 101//101 112//112 114//114 
f 101//101 114//114 103//103 
f 113//113 116//116 96//96 
f 104//104 102//102 113//113 
f 111//111 95//95 99//99 
f 99//99 117//117 111//111 
f 94//94 118//118 93//93 
f 98//98 99//99 94//94 
f 109//109 106//106 119//119 
f 110//110 108//108 106//106 
f 105//105 108//108 107//107 
f 53//53 51//51 46//46 
f 53//53 46//46 47//47 
f 51//51 52//52 60//60 
f 46//46 54//54 56//56 
f 52//52 48//48 61//61 
f 51//51 60//60 54//54 
f 47//47 55//55 58//58 
f 48//48 57//57 59//59 
f 49//49 61//61 50//50 
f 61//61 59//59 50//50 
f 50//50 59//59 64//64 
f 64//64 63//63 50//50 
f 64//64 58//58 63//63 
f 63//63 62//62 50//50 
f 63//63 56//56 62//62 
f 62//62 49//49 50//50 
f 62//62 60//60 49//49 
f 52//52 61//61 49//49 
f 57//57 64//64 59//59 
f 55//55 63//63 58//58 
f 54//54 60//60 62//62 
f 61//61 48//48 59//59 
f 57//57 58//58 64//64 
f 57//57 47//47 58//58 
f 55//55 56//56 63//63 
f 55//55 46//46 56//56 
f 56//56 54//54 62//62 
f 60//60 52//52 49//49 
f 52//52 53//53 48//48 
f 53//53 57//57 48//48 
f 53//53 47//47 57//57 
f 47//47 46//46 55//55 
f 51//51 53//53 52//52 
f 46//46 51//51 54//54 
f 65//65 70//70 66//66 
f 65//65 66//66 67//67 
f 65//65 67//67 74//74 
f 67//67 66//66 75//75 
f 70//70 71//71 73//73 
f 65//65 78//78 71//71 
f 68//68 78//78 69//69 
f 78//78 77//77 69//69 
f 78//78 76//76 77//77 
f 77//77 75//75 69//69 
f 73//73 68//68 69//69 
f 71//71 78//78 68//68 
f 74//74 77//77 76//76 
f 66//66 72//72 69//69 
f 72//72 73//73 69//69 
f 71//71 68//68 73//73 
f 78//78 65//65 76//76 
f 65//65 74//74 76//76 
f 74//74 75//75 77//77 
f 74//74 67//67 75//75 
f 75//75 66//66 69//69 
f 72//72 70//70 73//73 
f 71//71 70//70 65//65 
f 66//66 70//70 72//72 
f 79//79 84//84 80//80 
f 79//79 80//80 81//81 
f 79//79 81//81 88//88 
f 81//81 80//80 89//89 
f 84//84 85//85 87//87 
f 79//79 92//92 85//85 
f 82//82 92//92 83//83 
f 92//92 91//91 83//83 
f 92//92 90//90 91//91 
f 91//91 89//89 83//83 
f 87//87 82//82 83//83 
f 85//85 92//92 82//82 
f 88//88 91//91 90//90 
f 80//80 86//86 83//83 
f 86//86 87//87 83//83 
f 85//85 82//82 87//87 
f 92//92 79//79 90//90 
f 79//79 88//88 90//90 
f 88//88 89//89 91//91 
f 88//88 81//81 89//89 
f 89//89 80//80 83//83 
f 86//86 84//84 87//87 
f 85//85 84//84 79//79 
f 80//80 84//84 86//86 
f 120//120 2//2 4//4 
f 120//120 4//4 121//121 
f 121//121 4//4 6//6 
f 121//121 6//6 122//122 
f 122//122 6//6 8//8 
f 122//122 8//8 123//123 
f 42//42 41//41 11//11 
f 42//42 11//11 13//13 
f 123//123 8//8 10//10 
f 123//123 10//10 124//124 
f 124//124 10//10 2//2 
f 124//124 2//2 120//120 
f 9//9 124//124 120//120 
f 9//9 120//120 1//1 
f 44//44 43//43 15//15 
f 44//44 15//15 12//12 
f 41//41 44//44 12//12 
f 41//41 12//12 11//11 
f 45//45 42//42 13//13 
f 45//45 13//13 14//14 
f 43//43 45//45 14//14 
f 43//43 14//14 15//15 
f 22//22 25//25 30//30 
f 22//22 30//30 27//27 
f 19//19 18//18 23//23 
f 19//19 23//23 24//24 
f 17//17 16//16 22//22 
f 17//17 22//22 21//21 
f 20//20 19//19 24//24 
f 20//20 24//24 25//25 
f 18//18 17//17 21//21 
f 18//18 21//21 23//23 
f 16//16 20//20 25//25 
f 16//16 25//25 22//22 
f 24//24 23//23 28//28 
f 24//24 28//28 29//29 
f 21//21 22//22 27//27 
f 21//21 27//27 26//26 
f 25//25 24//24 29//29 
f 25//25 29//29 30//30 
f 23//23 21//21 26//26 
f 23//23 26//26 28//28 
f 31//31 35//35 40//40 
f 31//31 40//40 37//37 
f 34//34 33//33 38//38 
f 34//34 38//38 39//39 
f 32//32 31//31 37//37 
f 32//32 37//37 36//36 
f 35//35 34//34 39//39 
f 35//35 39//39 40//40 
f 33//33 32//32 36//36 
f 33//33 36//36 38//38 
f 10//10 8//8 45//45 
f 10//10 45//45 43//43 
f 8//8 6//6 42//42 
f 8//8 42//42 45//45 
f 4//4 2//2 44//44 
f 4//4 44//44 41//41 
f 2//2 10//10 43//43 
f 2//2 43//43 44//44 
f 6//6 4//4 41//41 
f 6//6 41//41 42//42 
f 102//102 103//103 114//114 
f 102//102 114//114 116//116 
f 7//7 123//123 124//124 
f 7//7 124//124 9//9 
f 5//5 122//122 123//123 
f 5//5 123//123 7//7 
f 3//3 121//121 122//122 
f 3//3 122//122 5//5 
f 1//1 120//120 121//121 
f 1//1 121//121 3//3 
